<svg height="0" width="0" style="position:absolute" xmlns="http://www.w3.org/2000/svg">
  <symbol viewBox="0 0 512 512" id="icon-about"><path d="M462.001 461.323h-412c-1.12-65.146 29.422-133.477 118.699-180.74-18.008-18.994-40.12-52.342-40.12-101.531 0-70.787 57.589-128.375 128.374-128.375s128.374 57.588 128.374 128.375c0 49.748-22.659 83.242-41.192 102.311 85.45 43.554 119.003 113.767 117.865 179.96zM94.089 421.206h323.774c-19.278-88.455-114.277-105.621-120.319-134.936-6.661-32.316 47.667-36.125 47.667-107.219 0-48.666-39.592-88.258-88.257-88.258s-88.257 39.592-88.257 88.258c0 70.115 52.712 74.609 46.25 106.289-6.137 30.091-101.825 46.423-120.858 135.866z"/></symbol>
  <symbol viewBox="0 0 512 512" id="icon-calendar"><path xmlns="http://www.w3.org/2000/svg" d="M397.389 118.131c0 10.035-8.135 18.171-18.17 18.171s-18.171-8.136-18.171-18.171V72.402c0-10.034 8.136-18.17 18.171-18.17s18.17 8.136 18.17 18.17v45.729zm-245.5-45.811c0-10.035-8.136-18.171-18.17-18.171-10.036 0-18.171 8.136-18.171 18.171v45.728c0 10.035 8.135 18.171 18.171 18.171 10.034 0 18.17-8.136 18.17-18.171V72.32zm267.463 26.531v18.616c0 22.13-18.004 40.134-40.133 40.134-22.13 0-40.134-18.004-40.134-40.134V98.851H173.852v18.533c0 22.13-18.004 40.134-40.133 40.134-22.13 0-40.134-18.004-40.134-40.134V98.851H50v359h412v-359h-42.648zm2.648 319H90V195.38h332v222.471zm-155.839-82.674c0-14.731-7.681-26.239-20.387-31.124 9.716-4.852 15.363-14.818 15.363-27.61 0-24.714-24.103-39.482-47.404-39.482-27.117 0-47.591 16.986-48.831 50.757h30.196c-.26-13.972 4.987-24.15 18.828-24.15 8.249 0 17.128 4.996 17.128 15.967 0 13.849-14.992 15.833-28.788 14.627v23.504c19.606 0 31.3 1.244 31.3 18.093 0 13.3-10.058 19.253-20.024 19.253-15.118 0-21.29-11.277-21.835-26.663h-29.981c-.568 34.747 20.488 53.076 52.201 53.076 28.335-.002 52.234-17.321 52.234-46.248zm79.216 43.732V239.665h-25.556c-3.17 21.188-18.279 27.386-39.884 26.801v24.729h34.004v87.714h31.436z"/></symbol>
  <symbol viewBox="0 0 512 512" id="icon-chevron"><path d="M90 256c0 91.755 74.258 166 166 166 91.755 0 166-74.259 166-166 0-91.755-74.258-166-166-166-91.755 0-166 74.259-166 166zm372 0c0 113.771-92.229 206-206 206S50 369.771 50 256 142.229 50 256 50s206 92.229 206 206zm-262.045-87.402l32.263-32.107L352.154 257 232.218 377.51l-32.263-32.107L287.937 257l-87.982-88.402z"/></symbol>
  <symbol viewBox="0 0 512 512" id="icon-edit"><path d="M377.194 248.239L202.636 422.795 50 460.667l40.695-150.129 174.398-174.399 28.352 28.351-166.424 166.43-10.901 45.092 20.288 20.287 46.166-10.148 166.267-166.264 28.353 28.352zm28.334-28.333L462 163.431 349.899 51.333l-56.472 56.473 112.101 112.1z"/></symbol>
  <symbol viewBox="0 0 512 512" id="icon-folder"><path d="M166.801 131.66l20.984 20.893c16.654 16.581 38.769 25.712 62.27 25.712H422V380.34H90V131.66h76.801m16.516-40H50v328.68h412V138.265H250.055a48.258 48.258 0 0 1-34.048-14.059l-32.69-32.546z"/></symbol>
  <symbol viewBox="0 0 512 512" id="icon-home"><path d="M256 69.972L50 275.815h42.507v166.213h326.985V275.815H462L256 69.972zm118.492 327.056h-73.767v-86.495h-89.451v86.495h-73.768V251.99L256 133.587l118.492 118.402v145.039z"/></symbol>
  <symbol viewBox="0 0 512 512" id="icon-link"><path d="M156.226 199.679a110.445 110.445 0 0 1 24.794-18.659c49.556-27.318 113.117-12.788 144.97 35.518l-38.547 38.547c-11.059-25.227-38.5-39.565-65.813-33.456a57.167 57.167 0 0 0-28.039 15.413l-73.898 73.896c-22.433 22.433-22.432 58.936.002 81.369 22.433 22.433 58.935 22.433 81.368 0l22.78-22.779c20.71 8.217 42.938 11.508 64.862 9.863l-50.278 50.278c-43.105 43.105-112.991 43.105-156.096 0-43.105-43.104-43.106-112.991-.001-156.096l73.896-73.894zM273.574 82.33l-50.278 50.278c21.928-1.643 44.152 1.648 64.863 9.865l22.779-22.78c22.434-22.434 58.936-22.434 81.37 0 22.434 22.434 22.434 58.936 0 81.37l-73.897 73.895c-22.501 22.501-59.061 22.311-81.368 0-5.202-5.201-9.694-11.678-12.484-18.04l-38.546 38.546c4.049 6.142 8.261 11.453 13.666 16.858 13.949 13.95 31.698 24.339 52.117 29.251 26.466 6.37 54.823 2.839 79.185-10.592a110.452 110.452 0 0 0 24.794-18.659l73.896-73.895c43.105-43.105 43.105-112.991.001-156.097-43.106-43.105-112.992-43.105-156.098 0z"/></symbol>
  <symbol viewBox="0 0 512 512" id="icon-quote"><path d="M84.068 324.563c-13.78-49.268 7.118-121.859 66.929-161.4-24.437 32.14-29.024 68.81-27.774 89.164 13.75 1.021 78.75 5.771 78.361 63.194 0 65-96.905 82.727-117.516 9.042zm147.516-9.042c0-44.646-32.703-81.654-75.459-88.385 3.725-34.4 28.92-67.135 66.943-81.465l-16.887-36.498C82.055 133.672 32.959 253.211 55.178 332.645c30.294 105.911 176.406 85.244 176.406-17.124zm82.9 9.042c-13.78-49.268 7.118-121.859 66.929-161.4-24.437 32.14-29.024 68.81-27.774 89.164 13.75 1.021 78.75 5.771 78.361 63.194 0 65-96.905 82.727-117.516 9.042zM462 315.521c0-44.646-32.703-81.654-75.459-88.385 3.725-34.4 28.92-67.135 66.943-81.465l-16.887-36.498C312.47 133.671 263.374 253.21 285.593 332.644 315.888 438.556 462 417.889 462 315.521z"/></symbol>
  <symbol viewBox="0 0 512 512" id="icon-search"><path d="M208.464 363.98c-86.564 0-156.989-70.426-156.989-156.99C51.475 120.426 121.899 50 208.464 50s156.991 70.426 156.991 156.991c0 86.564-70.426 156.989-156.991 156.989zm0-260.379c-57.01 0-103.389 46.381-103.389 103.39S151.454 310.38 208.464 310.38c57.009 0 103.391-46.38 103.391-103.389s-46.382-103.39-103.391-103.39zm159.018 213.626a195.182 195.182 0 0 1-52.291 51.166L408.798 462l51.728-51.729-93.044-93.044z"/></symbol>
  <symbol viewBox="0 0 512 512" id="icon-sticky"><path d="M276.332 328v93.667L235.667 462V328h40.665zm18.895-248c-8.287 14.458-16.573 33.71-16.573 62.352 0 66 44.222 81.726 54.957 130.648H178.37c10.687-48.968 54.978-64.5 54.978-130.648 0-28.768-8.253-47.967-16.529-62.352h78.408m45.72-30H171.054c1.369 32.805 32.294 42.523 32.294 92.352v.01c0 64.725-57.89 68.699-57.89 160.638h221.084c0-91.639-57.889-96.11-57.889-160.648 0-49.436 30.939-59.846 32.294-92.352z"/></symbol>
</svg>
