<svg version="1.1" viewBox="0.0 0.0 685.8792650918635 326.8031496062992" fill="none" stroke="none" stroke-linecap="square" stroke-miterlimit="10" xmlns:xlink="http://www.w3.org/1999/xlink" xmlns="http://www.w3.org/2000/svg"><clipPath id="p.0"><path d="m0 0l685.8793 0l0 326.80316l-685.8793 0l0 -326.80316z" clip-rule="nonzero"/></clipPath><g clip-path="url(#p.0)"><path fill="#000000" fill-opacity="0.0" d="m0 0l685.8793 0l0 326.80316l-685.8793 0z" fill-rule="evenodd"/><path fill="#000000" fill-opacity="0.0" d="m117.03412 40.76378l15.5590515 0l0 15.559055l-15.5590515 0z" fill-rule="evenodd"/><path stroke="#ffffff" stroke-width="1.0" stroke-linejoin="round" stroke-linecap="butt" d="m117.03412 40.76378l15.5590515 0l0 15.559055l-15.5590515 0z" fill-rule="evenodd"/><path fill="#000000" fill-opacity="0.0" d="m132.59317 40.76378l15.559067 0l0 15.559055l-15.559067 0z" fill-rule="evenodd"/><path stroke="#ffffff" stroke-width="1.0" stroke-linejoin="round" stroke-linecap="butt" d="m132.59317 40.76378l15.559067 0l0 15.559055l-15.559067 0z" fill-rule="evenodd"/><path fill="#000000" fill-opacity="0.0" d="m148.15224 40.76378l15.5590515 0l0 15.559055l-15.5590515 0z" fill-rule="evenodd"/><path stroke="#ffffff" stroke-width="1.0" stroke-linejoin="round" stroke-linecap="butt" d="m148.15224 40.76378l15.5590515 0l0 15.559055l-15.5590515 0z" fill-rule="evenodd"/><path fill="#000000" fill-opacity="0.0" d="m163.71129 40.76378l15.5590515 0l0 15.559055l-15.5590515 0z" fill-rule="evenodd"/><path stroke="#ffffff" stroke-width="1.0" stroke-linejoin="round" stroke-linecap="butt" d="m163.71129 40.76378l15.5590515 0l0 15.559055l-15.5590515 0z" fill-rule="evenodd"/><path fill="#000000" fill-opacity="0.0" d="m179.27034 40.76378l15.5590515 0l0 15.559055l-15.5590515 0z" fill-rule="evenodd"/><path stroke="#ffffff" stroke-width="1.0" stroke-linejoin="round" stroke-linecap="butt" d="m179.27034 40.76378l15.5590515 0l0 15.559055l-15.5590515 0z" fill-rule="evenodd"/><path fill="#000000" fill-opacity="0.0" d="m194.82939 40.76378l15.559067 0l0 15.559055l-15.559067 0z" fill-rule="evenodd"/><path stroke="#ffffff" stroke-width="1.0" stroke-linejoin="round" stroke-linecap="butt" d="m194.82939 40.76378l15.559067 0l0 15.559055l-15.559067 0z" fill-rule="evenodd"/><path fill="#000000" fill-opacity="0.0" d="m210.38846 40.76378l15.5590515 0l0 15.559055l-15.5590515 0z" fill-rule="evenodd"/><path stroke="#ffffff" stroke-width="1.0" stroke-linejoin="round" stroke-linecap="butt" d="m210.38846 40.76378l15.5590515 0l0 15.559055l-15.5590515 0z" fill-rule="evenodd"/><path fill="#000000" fill-opacity="0.0" d="m225.94751 40.76378l15.5590515 0l0 15.559055l-15.5590515 0z" fill-rule="evenodd"/><path stroke="#ffffff" stroke-width="1.0" stroke-linejoin="round" stroke-linecap="butt" d="m225.94751 40.76378l15.5590515 0l0 15.559055l-15.5590515 0z" fill-rule="evenodd"/><path fill="#000000" fill-opacity="0.0" d="m241.50656 40.76378l15.5590515 0l0 15.559055l-15.5590515 0z" fill-rule="evenodd"/><path stroke="#ffffff" stroke-width="1.0" stroke-linejoin="round" stroke-linecap="butt" d="m241.50656 40.76378l15.5590515 0l0 15.559055l-15.5590515 0z" fill-rule="evenodd"/><path fill="#000000" fill-opacity="0.0" d="m257.0656 40.76378l15.5590515 0l0 15.559055l-15.5590515 0z" fill-rule="evenodd"/><path stroke="#ffffff" stroke-width="1.0" stroke-linejoin="round" stroke-linecap="butt" d="m257.0656 40.76378l15.5590515 0l0 15.559055l-15.5590515 0z" fill-rule="evenodd"/><path fill="#000000" fill-opacity="0.0" d="m272.62466 40.76378l15.5590515 0l0 15.559055l-15.5590515 0z" fill-rule="evenodd"/><path stroke="#ffffff" stroke-width="1.0" stroke-linejoin="round" stroke-linecap="butt" d="m272.62466 40.76378l15.5590515 0l0 15.559055l-15.5590515 0z" fill-rule="evenodd"/><path fill="#000000" fill-opacity="0.0" d="m288.18372 40.76378l15.5590515 0l0 15.559055l-15.5590515 0z" fill-rule="evenodd"/><path stroke="#ffffff" stroke-width="1.0" stroke-linejoin="round" stroke-linecap="butt" d="m288.18372 40.76378l15.5590515 0l0 15.559055l-15.5590515 0z" fill-rule="evenodd"/><path fill="#000000" fill-opacity="0.0" d="m303.74277 40.76378l15.559082 0l0 15.559055l-15.559082 0z" fill-rule="evenodd"/><path stroke="#ffffff" stroke-width="1.0" stroke-linejoin="round" stroke-linecap="butt" d="m303.74277 40.76378l15.559082 0l0 15.559055l-15.559082 0z" fill-rule="evenodd"/><path fill="#000000" fill-opacity="0.0" d="m319.30185 40.76378l15.5590515 0l0 15.559055l-15.5590515 0z" fill-rule="evenodd"/><path stroke="#ffffff" stroke-width="1.0" stroke-linejoin="round" stroke-linecap="butt" d="m319.30185 40.76378l15.5590515 0l0 15.559055l-15.5590515 0z" fill-rule="evenodd"/><path fill="#000000" fill-opacity="0.0" d="m334.8609 40.76378l15.5590515 0l0 15.559055l-15.5590515 0z" fill-rule="evenodd"/><path stroke="#ffffff" stroke-width="1.0" stroke-linejoin="round" stroke-linecap="butt" d="m334.8609 40.76378l15.5590515 0l0 15.559055l-15.5590515 0z" fill-rule="evenodd"/><path fill="#000000" fill-opacity="0.0" d="m350.41995 40.76378l15.5590515 0l0 15.559055l-15.5590515 0z" fill-rule="evenodd"/><path stroke="#ffffff" stroke-width="1.0" stroke-linejoin="round" stroke-linecap="butt" d="m350.41995 40.76378l15.5590515 0l0 15.559055l-15.5590515 0z" fill-rule="evenodd"/><path fill="#000000" fill-opacity="0.0" d="m365.979 40.76378l15.5590515 0l0 15.559055l-15.5590515 0z" fill-rule="evenodd"/><path stroke="#ffffff" stroke-width="1.0" stroke-linejoin="round" stroke-linecap="butt" d="m365.979 40.76378l15.5590515 0l0 15.559055l-15.5590515 0z" fill-rule="evenodd"/><path fill="#000000" fill-opacity="0.0" d="m381.53806 40.76378l15.5590515 0l0 15.559055l-15.5590515 0z" fill-rule="evenodd"/><path stroke="#ffffff" stroke-width="1.0" stroke-linejoin="round" stroke-linecap="butt" d="m381.53806 40.76378l15.5590515 0l0 15.559055l-15.5590515 0z" fill-rule="evenodd"/><path fill="#000000" fill-opacity="0.0" d="m397.0971 40.76378l15.5590515 0l0 15.559055l-15.5590515 0z" fill-rule="evenodd"/><path stroke="#ffffff" stroke-width="1.0" stroke-linejoin="round" stroke-linecap="butt" d="m397.0971 40.76378l15.5590515 0l0 15.559055l-15.5590515 0z" fill-rule="evenodd"/><path fill="#000000" fill-opacity="0.0" d="m412.65616 40.76378l15.5590515 0l0 15.559055l-15.5590515 0z" fill-rule="evenodd"/><path stroke="#ffffff" stroke-width="1.0" stroke-linejoin="round" stroke-linecap="butt" d="m412.65616 40.76378l15.5590515 0l0 15.559055l-15.5590515 0z" fill-rule="evenodd"/><path fill="#000000" fill-opacity="0.0" d="m428.2152 40.76378l15.559082 0l0 15.559055l-15.559082 0z" fill-rule="evenodd"/><path stroke="#ffffff" stroke-width="1.0" stroke-linejoin="round" stroke-linecap="butt" d="m428.2152 40.76378l15.559082 0l0 15.559055l-15.559082 0z" fill-rule="evenodd"/><path fill="#000000" fill-opacity="0.0" d="m443.7743 40.76378l15.5590515 0l0 15.559055l-15.5590515 0z" fill-rule="evenodd"/><path stroke="#ffffff" stroke-width="1.0" stroke-linejoin="round" stroke-linecap="butt" d="m443.7743 40.76378l15.5590515 0l0 15.559055l-15.5590515 0z" fill-rule="evenodd"/><path fill="#000000" fill-opacity="0.0" d="m459.33334 40.76378l15.5590515 0l0 15.559055l-15.5590515 0z" fill-rule="evenodd"/><path stroke="#ffffff" stroke-width="1.0" stroke-linejoin="round" stroke-linecap="butt" d="m459.33334 40.76378l15.5590515 0l0 15.559055l-15.5590515 0z" fill-rule="evenodd"/><path fill="#000000" fill-opacity="0.0" d="m474.8924 40.76378l15.5590515 0l0 15.559055l-15.5590515 0z" fill-rule="evenodd"/><path stroke="#ffffff" stroke-width="1.0" stroke-linejoin="round" stroke-linecap="butt" d="m474.8924 40.76378l15.5590515 0l0 15.559055l-15.5590515 0z" fill-rule="evenodd"/><path fill="#000000" fill-opacity="0.0" d="m490.45145 40.76378l15.5590515 0l0 15.559055l-15.5590515 0z" fill-rule="evenodd"/><path stroke="#ffffff" stroke-width="1.0" stroke-linejoin="round" stroke-linecap="butt" d="m490.45145 40.76378l15.5590515 0l0 15.559055l-15.5590515 0z" fill-rule="evenodd"/><path fill="#000000" fill-opacity="0.0" d="m506.0105 40.76378l15.559082 0l0 15.559055l-15.559082 0z" fill-rule="evenodd"/><path stroke="#ffffff" stroke-width="1.0" stroke-linejoin="round" stroke-linecap="butt" d="m506.0105 40.76378l15.559082 0l0 15.559055l-15.559082 0z" fill-rule="evenodd"/><path fill="#000000" fill-opacity="0.0" d="m521.5696 40.76378l15.559021 0l0 15.559055l-15.559021 0z" fill-rule="evenodd"/><path stroke="#ffffff" stroke-width="1.0" stroke-linejoin="round" stroke-linecap="butt" d="m521.5696 40.76378l15.559021 0l0 15.559055l-15.559021 0z" fill-rule="evenodd"/><path fill="#000000" fill-opacity="0.0" d="m537.1286 40.76378l15.559082 0l0 15.559055l-15.559082 0z" fill-rule="evenodd"/><path stroke="#ffffff" stroke-width="1.0" stroke-linejoin="round" stroke-linecap="butt" d="m537.1286 40.76378l15.559082 0l0 15.559055l-15.559082 0z" fill-rule="evenodd"/><path fill="#000000" fill-opacity="0.0" d="m552.6877 40.76378l15.559021 0l0 15.559055l-15.559021 0z" fill-rule="evenodd"/><path stroke="#ffffff" stroke-width="1.0" stroke-linejoin="round" stroke-linecap="butt" d="m552.6877 40.76378l15.559021 0l0 15.559055l-15.559021 0z" fill-rule="evenodd"/><path fill="#000000" fill-opacity="0.0" d="m568.2467 40.76378l15.559082 0l0 15.559055l-15.559082 0z" fill-rule="evenodd"/><path stroke="#ffffff" stroke-width="1.0" stroke-linejoin="round" stroke-linecap="butt" d="m568.2467 40.76378l15.559082 0l0 15.559055l-15.559082 0z" fill-rule="evenodd"/><path fill="#000000" fill-opacity="0.0" d="m117.03412 73.580055l15.5590515 0l0 15.5590515l-15.5590515 0z" fill-rule="evenodd"/><path stroke="#ffffff" stroke-width="1.0" stroke-linejoin="round" stroke-linecap="butt" d="m117.03412 73.580055l15.5590515 0l0 15.5590515l-15.5590515 0z" fill-rule="evenodd"/><path fill="#000000" fill-opacity="0.0" d="m132.59317 73.580055l15.559067 0l0 15.5590515l-15.559067 0z" fill-rule="evenodd"/><path stroke="#ffffff" stroke-width="1.0" stroke-linejoin="round" stroke-linecap="butt" d="m132.59317 73.580055l15.559067 0l0 15.5590515l-15.559067 0z" fill-rule="evenodd"/><path fill="#000000" fill-opacity="0.0" d="m148.15224 73.580055l15.5590515 0l0 15.5590515l-15.5590515 0z" fill-rule="evenodd"/><path stroke="#ffffff" stroke-width="1.0" stroke-linejoin="round" stroke-linecap="butt" d="m148.15224 73.580055l15.5590515 0l0 15.5590515l-15.5590515 0z" fill-rule="evenodd"/><path fill="#000000" fill-opacity="0.0" d="m163.71129 73.580055l15.5590515 0l0 15.5590515l-15.5590515 0z" fill-rule="evenodd"/><path stroke="#ffffff" stroke-width="1.0" stroke-linejoin="round" stroke-linecap="butt" d="m163.71129 73.580055l15.5590515 0l0 15.5590515l-15.5590515 0z" fill-rule="evenodd"/><path fill="#000000" fill-opacity="0.0" d="m179.27034 73.580055l15.5590515 0l0 15.5590515l-15.5590515 0z" fill-rule="evenodd"/><path stroke="#ffffff" stroke-width="1.0" stroke-linejoin="round" stroke-linecap="butt" d="m179.27034 73.580055l15.5590515 0l0 15.5590515l-15.5590515 0z" fill-rule="evenodd"/><path fill="#000000" fill-opacity="0.0" d="m194.82939 73.580055l15.559067 0l0 15.5590515l-15.559067 0z" fill-rule="evenodd"/><path stroke="#ffffff" stroke-width="1.0" stroke-linejoin="round" stroke-linecap="butt" d="m194.82939 73.580055l15.559067 0l0 15.5590515l-15.559067 0z" fill-rule="evenodd"/><path fill="#000000" fill-opacity="0.0" d="m210.38846 73.580055l15.5590515 0l0 15.5590515l-15.5590515 0z" fill-rule="evenodd"/><path stroke="#ffffff" stroke-width="1.0" stroke-linejoin="round" stroke-linecap="butt" d="m210.38846 73.580055l15.5590515 0l0 15.5590515l-15.5590515 0z" fill-rule="evenodd"/><path fill="#000000" fill-opacity="0.0" d="m225.94751 73.580055l15.5590515 0l0 15.5590515l-15.5590515 0z" fill-rule="evenodd"/><path stroke="#ffffff" stroke-width="1.0" stroke-linejoin="round" stroke-linecap="butt" d="m225.94751 73.580055l15.5590515 0l0 15.5590515l-15.5590515 0z" fill-rule="evenodd"/><path fill="#000000" fill-opacity="0.0" d="m241.50656 73.580055l15.5590515 0l0 15.5590515l-15.5590515 0z" fill-rule="evenodd"/><path stroke="#ffffff" stroke-width="1.0" stroke-linejoin="round" stroke-linecap="butt" d="m241.50656 73.580055l15.5590515 0l0 15.5590515l-15.5590515 0z" fill-rule="evenodd"/><path fill="#000000" fill-opacity="0.0" d="m257.0656 73.580055l15.5590515 0l0 15.5590515l-15.5590515 0z" fill-rule="evenodd"/><path stroke="#ffffff" stroke-width="1.0" stroke-linejoin="round" stroke-linecap="butt" d="m257.0656 73.580055l15.5590515 0l0 15.5590515l-15.5590515 0z" fill-rule="evenodd"/><path fill="#000000" fill-opacity="0.0" d="m272.62466 73.580055l15.5590515 0l0 15.5590515l-15.5590515 0z" fill-rule="evenodd"/><path stroke="#ffffff" stroke-width="1.0" stroke-linejoin="round" stroke-linecap="butt" d="m272.62466 73.580055l15.5590515 0l0 15.5590515l-15.5590515 0z" fill-rule="evenodd"/><path fill="#000000" fill-opacity="0.0" d="m288.18372 73.580055l15.5590515 0l0 15.5590515l-15.5590515 0z" fill-rule="evenodd"/><path stroke="#ffffff" stroke-width="1.0" stroke-linejoin="round" stroke-linecap="butt" d="m288.18372 73.580055l15.5590515 0l0 15.5590515l-15.5590515 0z" fill-rule="evenodd"/><path fill="#000000" fill-opacity="0.0" d="m303.74277 73.580055l15.559082 0l0 15.5590515l-15.559082 0z" fill-rule="evenodd"/><path stroke="#ffffff" stroke-width="1.0" stroke-linejoin="round" stroke-linecap="butt" d="m303.74277 73.580055l15.559082 0l0 15.5590515l-15.559082 0z" fill-rule="evenodd"/><path fill="#000000" fill-opacity="0.0" d="m319.30185 73.580055l15.5590515 0l0 15.5590515l-15.5590515 0z" fill-rule="evenodd"/><path stroke="#ffffff" stroke-width="1.0" stroke-linejoin="round" stroke-linecap="butt" d="m319.30185 73.580055l15.5590515 0l0 15.5590515l-15.5590515 0z" fill-rule="evenodd"/><path fill="#000000" fill-opacity="0.0" d="m334.8609 73.580055l15.5590515 0l0 15.5590515l-15.5590515 0z" fill-rule="evenodd"/><path stroke="#ffffff" stroke-width="1.0" stroke-linejoin="round" stroke-linecap="butt" d="m334.8609 73.580055l15.5590515 0l0 15.5590515l-15.5590515 0z" fill-rule="evenodd"/><path fill="#000000" fill-opacity="0.0" d="m350.41995 73.580055l15.5590515 0l0 15.5590515l-15.5590515 0z" fill-rule="evenodd"/><path stroke="#ffffff" stroke-width="1.0" stroke-linejoin="round" stroke-linecap="butt" d="m350.41995 73.580055l15.5590515 0l0 15.5590515l-15.5590515 0z" fill-rule="evenodd"/><path fill="#000000" fill-opacity="0.0" d="m365.979 73.580055l15.5590515 0l0 15.5590515l-15.5590515 0z" fill-rule="evenodd"/><path stroke="#ffffff" stroke-width="1.0" stroke-linejoin="round" stroke-linecap="butt" d="m365.979 73.580055l15.5590515 0l0 15.5590515l-15.5590515 0z" fill-rule="evenodd"/><path fill="#000000" fill-opacity="0.0" d="m381.53806 73.580055l15.5590515 0l0 15.5590515l-15.5590515 0z" fill-rule="evenodd"/><path stroke="#ffffff" stroke-width="1.0" stroke-linejoin="round" stroke-linecap="butt" d="m381.53806 73.580055l15.5590515 0l0 15.5590515l-15.5590515 0z" fill-rule="evenodd"/><path fill="#000000" fill-opacity="0.0" d="m397.0971 73.580055l15.5590515 0l0 15.5590515l-15.5590515 0z" fill-rule="evenodd"/><path stroke="#ffffff" stroke-width="1.0" stroke-linejoin="round" stroke-linecap="butt" d="m397.0971 73.580055l15.5590515 0l0 15.5590515l-15.5590515 0z" fill-rule="evenodd"/><path fill="#000000" fill-opacity="0.0" d="m412.65616 73.580055l15.5590515 0l0 15.5590515l-15.5590515 0z" fill-rule="evenodd"/><path stroke="#ffffff" stroke-width="1.0" stroke-linejoin="round" stroke-linecap="butt" d="m412.65616 73.580055l15.5590515 0l0 15.5590515l-15.5590515 0z" fill-rule="evenodd"/><path fill="#000000" fill-opacity="0.0" d="m117.03412 106.396324l15.5590515 0l0 15.559059l-15.5590515 0z" fill-rule="evenodd"/><path stroke="#ffffff" stroke-width="1.0" stroke-linejoin="round" stroke-linecap="butt" d="m117.03412 106.396324l15.5590515 0l0 15.559059l-15.5590515 0z" fill-rule="evenodd"/><path fill="#000000" fill-opacity="0.0" d="m132.59317 106.396324l15.559067 0l0 15.559059l-15.559067 0z" fill-rule="evenodd"/><path stroke="#ffffff" stroke-width="1.0" stroke-linejoin="round" stroke-linecap="butt" d="m132.59317 106.396324l15.559067 0l0 15.559059l-15.559067 0z" fill-rule="evenodd"/><path fill="#000000" fill-opacity="0.0" d="m148.15224 106.396324l15.5590515 0l0 15.559059l-15.5590515 0z" fill-rule="evenodd"/><path stroke="#ffffff" stroke-width="1.0" stroke-linejoin="round" stroke-linecap="butt" d="m148.15224 106.396324l15.5590515 0l0 15.559059l-15.5590515 0z" fill-rule="evenodd"/><path fill="#000000" fill-opacity="0.0" d="m163.71129 106.396324l15.5590515 0l0 15.559059l-15.5590515 0z" fill-rule="evenodd"/><path stroke="#ffffff" stroke-width="1.0" stroke-linejoin="round" stroke-linecap="butt" d="m163.71129 106.396324l15.5590515 0l0 15.559059l-15.5590515 0z" fill-rule="evenodd"/><path fill="#000000" fill-opacity="0.0" d="m179.27034 106.396324l15.5590515 0l0 15.559059l-15.5590515 0z" fill-rule="evenodd"/><path stroke="#ffffff" stroke-width="1.0" stroke-linejoin="round" stroke-linecap="butt" d="m179.27034 106.396324l15.5590515 0l0 15.559059l-15.5590515 0z" fill-rule="evenodd"/><path fill="#000000" fill-opacity="0.0" d="m194.82939 106.396324l15.559067 0l0 15.559059l-15.559067 0z" fill-rule="evenodd"/><path stroke="#ffffff" stroke-width="1.0" stroke-linejoin="round" stroke-linecap="butt" d="m194.82939 106.396324l15.559067 0l0 15.559059l-15.559067 0z" fill-rule="evenodd"/><path fill="#000000" fill-opacity="0.0" d="m210.38846 106.396324l15.5590515 0l0 15.559059l-15.5590515 0z" fill-rule="evenodd"/><path stroke="#ffffff" stroke-width="1.0" stroke-linejoin="round" stroke-linecap="butt" d="m210.38846 106.396324l15.5590515 0l0 15.559059l-15.5590515 0z" fill-rule="evenodd"/><path fill="#000000" fill-opacity="0.0" d="m225.94751 106.396324l15.5590515 0l0 15.559059l-15.5590515 0z" fill-rule="evenodd"/><path stroke="#ffffff" stroke-width="1.0" stroke-linejoin="round" stroke-linecap="butt" d="m225.94751 106.396324l15.5590515 0l0 15.559059l-15.5590515 0z" fill-rule="evenodd"/><path fill="#000000" fill-opacity="0.0" d="m241.50656 106.396324l15.5590515 0l0 15.559059l-15.5590515 0z" fill-rule="evenodd"/><path stroke="#ffffff" stroke-width="1.0" stroke-linejoin="round" stroke-linecap="butt" d="m241.50656 106.396324l15.5590515 0l0 15.559059l-15.5590515 0z" fill-rule="evenodd"/><path fill="#000000" fill-opacity="0.0" d="m257.0656 106.396324l15.5590515 0l0 15.559059l-15.5590515 0z" fill-rule="evenodd"/><path stroke="#ffffff" stroke-width="1.0" stroke-linejoin="round" stroke-linecap="butt" d="m257.0656 106.396324l15.5590515 0l0 15.559059l-15.5590515 0z" fill-rule="evenodd"/><path fill="#000000" fill-opacity="0.0" d="m272.62466 106.396324l15.5590515 0l0 15.559059l-15.5590515 0z" fill-rule="evenodd"/><path stroke="#ffffff" stroke-width="1.0" stroke-linejoin="round" stroke-linecap="butt" d="m272.62466 106.396324l15.5590515 0l0 15.559059l-15.5590515 0z" fill-rule="evenodd"/><path fill="#000000" fill-opacity="0.0" d="m288.18372 106.396324l15.5590515 0l0 15.559059l-15.5590515 0z" fill-rule="evenodd"/><path stroke="#ffffff" stroke-width="1.0" stroke-linejoin="round" stroke-linecap="butt" d="m288.18372 106.396324l15.5590515 0l0 15.559059l-15.5590515 0z" fill-rule="evenodd"/><path fill="#000000" fill-opacity="0.0" d="m303.74277 106.396324l15.559082 0l0 15.559059l-15.559082 0z" fill-rule="evenodd"/><path stroke="#ffffff" stroke-width="1.0" stroke-linejoin="round" stroke-linecap="butt" d="m303.74277 106.396324l15.559082 0l0 15.559059l-15.559082 0z" fill-rule="evenodd"/><path fill="#000000" fill-opacity="0.0" d="m319.30185 106.396324l15.5590515 0l0 15.559059l-15.5590515 0z" fill-rule="evenodd"/><path stroke="#ffffff" stroke-width="1.0" stroke-linejoin="round" stroke-linecap="butt" d="m319.30185 106.396324l15.5590515 0l0 15.559059l-15.5590515 0z" fill-rule="evenodd"/><path fill="#000000" fill-opacity="0.0" d="m334.8609 106.396324l15.5590515 0l0 15.559059l-15.5590515 0z" fill-rule="evenodd"/><path stroke="#ffffff" stroke-width="1.0" stroke-linejoin="round" stroke-linecap="butt" d="m334.8609 106.396324l15.5590515 0l0 15.559059l-15.5590515 0z" fill-rule="evenodd"/><path fill="#000000" fill-opacity="0.0" d="m350.41995 106.396324l15.5590515 0l0 15.559059l-15.5590515 0z" fill-rule="evenodd"/><path stroke="#ffffff" stroke-width="1.0" stroke-linejoin="round" stroke-linecap="butt" d="m350.41995 106.396324l15.5590515 0l0 15.559059l-15.5590515 0z" fill-rule="evenodd"/><path fill="#000000" fill-opacity="0.0" d="m365.979 106.396324l15.5590515 0l0 15.559059l-15.5590515 0z" fill-rule="evenodd"/><path stroke="#ffffff" stroke-width="1.0" stroke-linejoin="round" stroke-linecap="butt" d="m365.979 106.396324l15.5590515 0l0 15.559059l-15.5590515 0z" fill-rule="evenodd"/><path fill="#000000" fill-opacity="0.0" d="m381.53806 106.396324l15.5590515 0l0 15.559059l-15.5590515 0z" fill-rule="evenodd"/><path stroke="#ffffff" stroke-width="1.0" stroke-linejoin="round" stroke-linecap="butt" d="m381.53806 106.396324l15.5590515 0l0 15.559059l-15.5590515 0z" fill-rule="evenodd"/><path fill="#000000" fill-opacity="0.0" d="m397.0971 106.396324l15.5590515 0l0 15.559059l-15.5590515 0z" fill-rule="evenodd"/><path stroke="#ffffff" stroke-width="1.0" stroke-linejoin="round" stroke-linecap="butt" d="m397.0971 106.396324l15.5590515 0l0 15.559059l-15.5590515 0z" fill-rule="evenodd"/><path fill="#000000" fill-opacity="0.0" d="m412.65616 106.396324l15.5590515 0l0 15.559059l-15.5590515 0z" fill-rule="evenodd"/><path stroke="#ffffff" stroke-width="1.0" stroke-linejoin="round" stroke-linecap="butt" d="m412.65616 106.396324l15.5590515 0l0 15.559059l-15.5590515 0z" fill-rule="evenodd"/><path fill="#000000" fill-opacity="0.0" d="m428.2152 106.396324l15.559082 0l0 15.559059l-15.559082 0z" fill-rule="evenodd"/><path stroke="#ffffff" stroke-width="1.0" stroke-linejoin="round" stroke-linecap="butt" d="m428.2152 106.396324l15.559082 0l0 15.559059l-15.559082 0z" fill-rule="evenodd"/><path fill="#000000" fill-opacity="0.0" d="m443.7743 106.396324l15.5590515 0l0 15.559059l-15.5590515 0z" fill-rule="evenodd"/><path stroke="#ffffff" stroke-width="1.0" stroke-linejoin="round" stroke-linecap="butt" d="m443.7743 106.396324l15.5590515 0l0 15.559059l-15.5590515 0z" fill-rule="evenodd"/><path fill="#000000" fill-opacity="0.0" d="m459.33334 106.396324l15.5590515 0l0 15.559059l-15.5590515 0z" fill-rule="evenodd"/><path stroke="#ffffff" stroke-width="1.0" stroke-linejoin="round" stroke-linecap="butt" d="m459.33334 106.396324l15.5590515 0l0 15.559059l-15.5590515 0z" fill-rule="evenodd"/><path fill="#000000" fill-opacity="0.0" d="m474.8924 106.396324l15.5590515 0l0 15.559059l-15.5590515 0z" fill-rule="evenodd"/><path stroke="#ffffff" stroke-width="1.0" stroke-linejoin="round" stroke-linecap="butt" d="m474.8924 106.396324l15.5590515 0l0 15.559059l-15.5590515 0z" fill-rule="evenodd"/><path fill="#000000" fill-opacity="0.0" d="m490.45145 106.396324l15.5590515 0l0 15.559059l-15.5590515 0z" fill-rule="evenodd"/><path stroke="#ffffff" stroke-width="1.0" stroke-linejoin="round" stroke-linecap="butt" d="m490.45145 106.396324l15.5590515 0l0 15.559059l-15.5590515 0z" fill-rule="evenodd"/><path fill="#000000" fill-opacity="0.0" d="m506.0105 106.396324l15.559082 0l0 15.559059l-15.559082 0z" fill-rule="evenodd"/><path stroke="#ffffff" stroke-width="1.0" stroke-linejoin="round" stroke-linecap="butt" d="m506.0105 106.396324l15.559082 0l0 15.559059l-15.559082 0z" fill-rule="evenodd"/><path fill="#000000" fill-opacity="0.0" d="m521.5696 106.396324l15.559021 0l0 15.559059l-15.559021 0z" fill-rule="evenodd"/><path stroke="#ffffff" stroke-width="1.0" stroke-linejoin="round" stroke-linecap="butt" d="m521.5696 106.396324l15.559021 0l0 15.559059l-15.559021 0z" fill-rule="evenodd"/><path fill="#000000" fill-opacity="0.0" d="m537.1286 106.396324l15.559082 0l0 15.559059l-15.559082 0z" fill-rule="evenodd"/><path stroke="#ffffff" stroke-width="1.0" stroke-linejoin="round" stroke-linecap="butt" d="m537.1286 106.396324l15.559082 0l0 15.559059l-15.559082 0z" fill-rule="evenodd"/><path fill="#000000" fill-opacity="0.0" d="m552.6877 106.396324l15.559021 0l0 15.559059l-15.559021 0z" fill-rule="evenodd"/><path stroke="#ffffff" stroke-width="1.0" stroke-linejoin="round" stroke-linecap="butt" d="m552.6877 106.396324l15.559021 0l0 15.559059l-15.559021 0z" fill-rule="evenodd"/><path fill="#000000" fill-opacity="0.0" d="m568.2467 106.396324l15.559082 0l0 15.559059l-15.559082 0z" fill-rule="evenodd"/><path stroke="#ffffff" stroke-width="1.0" stroke-linejoin="round" stroke-linecap="butt" d="m568.2467 106.396324l15.559082 0l0 15.559059l-15.559082 0z" fill-rule="evenodd"/><path fill="#000000" fill-opacity="0.0" d="m583.8058 106.396324l15.559021 0l0 15.559059l-15.559021 0z" fill-rule="evenodd"/><path stroke="#ffffff" stroke-width="1.0" stroke-linejoin="round" stroke-linecap="butt" d="m583.8058 106.396324l15.559021 0l0 15.559059l-15.559021 0z" fill-rule="evenodd"/><path fill="#000000" fill-opacity="0.0" d="m599.3648 106.396324l15.559082 0l0 15.559059l-15.559082 0z" fill-rule="evenodd"/><path stroke="#ffffff" stroke-width="1.0" stroke-linejoin="round" stroke-linecap="butt" d="m599.3648 106.396324l15.559082 0l0 15.559059l-15.559082 0z" fill-rule="evenodd"/><path fill="#000000" fill-opacity="0.0" d="m117.03412 139.2126l15.5590515 0l0 15.5590515l-15.5590515 0z" fill-rule="evenodd"/><path stroke="#ffffff" stroke-width="1.0" stroke-linejoin="round" stroke-linecap="butt" d="m117.03412 139.2126l15.5590515 0l0 15.5590515l-15.5590515 0z" fill-rule="evenodd"/><path fill="#000000" fill-opacity="0.0" d="m132.59317 139.2126l15.559067 0l0 15.5590515l-15.559067 0z" fill-rule="evenodd"/><path stroke="#ffffff" stroke-width="1.0" stroke-linejoin="round" stroke-linecap="butt" d="m132.59317 139.2126l15.559067 0l0 15.5590515l-15.559067 0z" fill-rule="evenodd"/><path fill="#000000" fill-opacity="0.0" d="m148.15224 139.2126l15.5590515 0l0 15.5590515l-15.5590515 0z" fill-rule="evenodd"/><path stroke="#ffffff" stroke-width="1.0" stroke-linejoin="round" stroke-linecap="butt" d="m148.15224 139.2126l15.5590515 0l0 15.5590515l-15.5590515 0z" fill-rule="evenodd"/><path fill="#000000" fill-opacity="0.0" d="m163.71129 139.2126l15.5590515 0l0 15.5590515l-15.5590515 0z" fill-rule="evenodd"/><path stroke="#ffffff" stroke-width="1.0" stroke-linejoin="round" stroke-linecap="butt" d="m163.71129 139.2126l15.5590515 0l0 15.5590515l-15.5590515 0z" fill-rule="evenodd"/><path fill="#000000" fill-opacity="0.0" d="m179.27034 139.2126l15.5590515 0l0 15.5590515l-15.5590515 0z" fill-rule="evenodd"/><path stroke="#ffffff" stroke-width="1.0" stroke-linejoin="round" stroke-linecap="butt" d="m179.27034 139.2126l15.5590515 0l0 15.5590515l-15.5590515 0z" fill-rule="evenodd"/><path fill="#000000" fill-opacity="0.0" d="m194.82939 139.2126l15.559067 0l0 15.5590515l-15.559067 0z" fill-rule="evenodd"/><path stroke="#ffffff" stroke-width="1.0" stroke-linejoin="round" stroke-linecap="butt" d="m194.82939 139.2126l15.559067 0l0 15.5590515l-15.559067 0z" fill-rule="evenodd"/><path fill="#000000" fill-opacity="0.0" d="m210.38846 139.2126l15.5590515 0l0 15.5590515l-15.5590515 0z" fill-rule="evenodd"/><path stroke="#ffffff" stroke-width="1.0" stroke-linejoin="round" stroke-linecap="butt" d="m210.38846 139.2126l15.5590515 0l0 15.5590515l-15.5590515 0z" fill-rule="evenodd"/><path fill="#000000" fill-opacity="0.0" d="m225.94751 139.2126l15.5590515 0l0 15.5590515l-15.5590515 0z" fill-rule="evenodd"/><path stroke="#ffffff" stroke-width="1.0" stroke-linejoin="round" stroke-linecap="butt" d="m225.94751 139.2126l15.5590515 0l0 15.5590515l-15.5590515 0z" fill-rule="evenodd"/><path fill="#000000" fill-opacity="0.0" d="m241.50656 139.2126l15.5590515 0l0 15.5590515l-15.5590515 0z" fill-rule="evenodd"/><path stroke="#ffffff" stroke-width="1.0" stroke-linejoin="round" stroke-linecap="butt" d="m241.50656 139.2126l15.5590515 0l0 15.5590515l-15.5590515 0z" fill-rule="evenodd"/><path fill="#000000" fill-opacity="0.0" d="m257.0656 139.2126l15.5590515 0l0 15.5590515l-15.5590515 0z" fill-rule="evenodd"/><path stroke="#ffffff" stroke-width="1.0" stroke-linejoin="round" stroke-linecap="butt" d="m257.0656 139.2126l15.5590515 0l0 15.5590515l-15.5590515 0z" fill-rule="evenodd"/><path fill="#000000" fill-opacity="0.0" d="m272.62466 139.2126l15.5590515 0l0 15.5590515l-15.5590515 0z" fill-rule="evenodd"/><path stroke="#ffffff" stroke-width="1.0" stroke-linejoin="round" stroke-linecap="butt" d="m272.62466 139.2126l15.5590515 0l0 15.5590515l-15.5590515 0z" fill-rule="evenodd"/><path fill="#000000" fill-opacity="0.0" d="m288.18372 139.2126l15.5590515 0l0 15.5590515l-15.5590515 0z" fill-rule="evenodd"/><path stroke="#ffffff" stroke-width="1.0" stroke-linejoin="round" stroke-linecap="butt" d="m288.18372 139.2126l15.5590515 0l0 15.5590515l-15.5590515 0z" fill-rule="evenodd"/><path fill="#000000" fill-opacity="0.0" d="m303.74277 139.2126l15.559082 0l0 15.5590515l-15.559082 0z" fill-rule="evenodd"/><path stroke="#ffffff" stroke-width="1.0" stroke-linejoin="round" stroke-linecap="butt" d="m303.74277 139.2126l15.559082 0l0 15.5590515l-15.559082 0z" fill-rule="evenodd"/><path fill="#000000" fill-opacity="0.0" d="m319.30185 139.2126l15.5590515 0l0 15.5590515l-15.5590515 0z" fill-rule="evenodd"/><path stroke="#ffffff" stroke-width="1.0" stroke-linejoin="round" stroke-linecap="butt" d="m319.30185 139.2126l15.5590515 0l0 15.5590515l-15.5590515 0z" fill-rule="evenodd"/><path fill="#000000" fill-opacity="0.0" d="m334.8609 139.2126l15.5590515 0l0 15.5590515l-15.5590515 0z" fill-rule="evenodd"/><path stroke="#ffffff" stroke-width="1.0" stroke-linejoin="round" stroke-linecap="butt" d="m334.8609 139.2126l15.5590515 0l0 15.5590515l-15.5590515 0z" fill-rule="evenodd"/><path fill="#000000" fill-opacity="0.0" d="m350.41995 139.2126l15.5590515 0l0 15.5590515l-15.5590515 0z" fill-rule="evenodd"/><path stroke="#ffffff" stroke-width="1.0" stroke-linejoin="round" stroke-linecap="butt" d="m350.41995 139.2126l15.5590515 0l0 15.5590515l-15.5590515 0z" fill-rule="evenodd"/><path fill="#000000" fill-opacity="0.0" d="m365.979 139.2126l15.5590515 0l0 15.5590515l-15.5590515 0z" fill-rule="evenodd"/><path stroke="#ffffff" stroke-width="1.0" stroke-linejoin="round" stroke-linecap="butt" d="m365.979 139.2126l15.5590515 0l0 15.5590515l-15.5590515 0z" fill-rule="evenodd"/><path fill="#000000" fill-opacity="0.0" d="m381.53806 139.2126l15.5590515 0l0 15.5590515l-15.5590515 0z" fill-rule="evenodd"/><path stroke="#ffffff" stroke-width="1.0" stroke-linejoin="round" stroke-linecap="butt" d="m381.53806 139.2126l15.5590515 0l0 15.5590515l-15.5590515 0z" fill-rule="evenodd"/><path fill="#000000" fill-opacity="0.0" d="m397.0971 139.2126l15.5590515 0l0 15.5590515l-15.5590515 0z" fill-rule="evenodd"/><path stroke="#ffffff" stroke-width="1.0" stroke-linejoin="round" stroke-linecap="butt" d="m397.0971 139.2126l15.5590515 0l0 15.5590515l-15.5590515 0z" fill-rule="evenodd"/><path fill="#000000" fill-opacity="0.0" d="m412.65616 139.2126l15.5590515 0l0 15.5590515l-15.5590515 0z" fill-rule="evenodd"/><path stroke="#ffffff" stroke-width="1.0" stroke-linejoin="round" stroke-linecap="butt" d="m412.65616 139.2126l15.5590515 0l0 15.5590515l-15.5590515 0z" fill-rule="evenodd"/><path fill="#000000" fill-opacity="0.0" d="m428.2152 139.2126l15.559082 0l0 15.5590515l-15.559082 0z" fill-rule="evenodd"/><path stroke="#ffffff" stroke-width="1.0" stroke-linejoin="round" stroke-linecap="butt" d="m428.2152 139.2126l15.559082 0l0 15.5590515l-15.559082 0z" fill-rule="evenodd"/><path fill="#000000" fill-opacity="0.0" d="m443.7743 139.2126l15.5590515 0l0 15.5590515l-15.5590515 0z" fill-rule="evenodd"/><path stroke="#ffffff" stroke-width="1.0" stroke-linejoin="round" stroke-linecap="butt" d="m443.7743 139.2126l15.5590515 0l0 15.5590515l-15.5590515 0z" fill-rule="evenodd"/><path fill="#000000" fill-opacity="0.0" d="m459.33334 139.2126l15.5590515 0l0 15.5590515l-15.5590515 0z" fill-rule="evenodd"/><path stroke="#ffffff" stroke-width="1.0" stroke-linejoin="round" stroke-linecap="butt" d="m459.33334 139.2126l15.5590515 0l0 15.5590515l-15.5590515 0z" fill-rule="evenodd"/><path fill="#000000" fill-opacity="0.0" d="m474.8924 139.2126l15.5590515 0l0 15.5590515l-15.5590515 0z" fill-rule="evenodd"/><path stroke="#ffffff" stroke-width="1.0" stroke-linejoin="round" stroke-linecap="butt" d="m474.8924 139.2126l15.5590515 0l0 15.5590515l-15.5590515 0z" fill-rule="evenodd"/><path fill="#000000" fill-opacity="0.0" d="m490.45145 139.2126l15.5590515 0l0 15.5590515l-15.5590515 0z" fill-rule="evenodd"/><path stroke="#ffffff" stroke-width="1.0" stroke-linejoin="round" stroke-linecap="butt" d="m490.45145 139.2126l15.5590515 0l0 15.5590515l-15.5590515 0z" fill-rule="evenodd"/><path fill="#000000" fill-opacity="0.0" d="m506.0105 139.2126l15.559082 0l0 15.5590515l-15.559082 0z" fill-rule="evenodd"/><path stroke="#ffffff" stroke-width="1.0" stroke-linejoin="round" stroke-linecap="butt" d="m506.0105 139.2126l15.559082 0l0 15.5590515l-15.559082 0z" fill-rule="evenodd"/><path fill="#000000" fill-opacity="0.0" d="m117.03412 172.02887l15.5590515 0l0 15.5590515l-15.5590515 0z" fill-rule="evenodd"/><path stroke="#ffffff" stroke-width="1.0" stroke-linejoin="round" stroke-linecap="butt" d="m117.03412 172.02887l15.5590515 0l0 15.5590515l-15.5590515 0z" fill-rule="evenodd"/><path fill="#000000" fill-opacity="0.0" d="m132.59317 172.02887l15.559067 0l0 15.5590515l-15.559067 0z" fill-rule="evenodd"/><path stroke="#ffffff" stroke-width="1.0" stroke-linejoin="round" stroke-linecap="butt" d="m132.59317 172.02887l15.559067 0l0 15.5590515l-15.559067 0z" fill-rule="evenodd"/><path fill="#000000" fill-opacity="0.0" d="m148.15224 172.02887l15.5590515 0l0 15.5590515l-15.5590515 0z" fill-rule="evenodd"/><path stroke="#ffffff" stroke-width="1.0" stroke-linejoin="round" stroke-linecap="butt" d="m148.15224 172.02887l15.5590515 0l0 15.5590515l-15.5590515 0z" fill-rule="evenodd"/><path fill="#000000" fill-opacity="0.0" d="m163.71129 172.02887l15.5590515 0l0 15.5590515l-15.5590515 0z" fill-rule="evenodd"/><path stroke="#ffffff" stroke-width="1.0" stroke-linejoin="round" stroke-linecap="butt" d="m163.71129 172.02887l15.5590515 0l0 15.5590515l-15.5590515 0z" fill-rule="evenodd"/><path fill="#000000" fill-opacity="0.0" d="m179.27034 172.02887l15.5590515 0l0 15.5590515l-15.5590515 0z" fill-rule="evenodd"/><path stroke="#ffffff" stroke-width="1.0" stroke-linejoin="round" stroke-linecap="butt" d="m179.27034 172.02887l15.5590515 0l0 15.5590515l-15.5590515 0z" fill-rule="evenodd"/><path fill="#000000" fill-opacity="0.0" d="m194.82939 172.02887l15.559067 0l0 15.5590515l-15.559067 0z" fill-rule="evenodd"/><path stroke="#ffffff" stroke-width="1.0" stroke-linejoin="round" stroke-linecap="butt" d="m194.82939 172.02887l15.559067 0l0 15.5590515l-15.559067 0z" fill-rule="evenodd"/><path fill="#000000" fill-opacity="0.0" d="m210.38846 172.02887l15.5590515 0l0 15.5590515l-15.5590515 0z" fill-rule="evenodd"/><path stroke="#ffffff" stroke-width="1.0" stroke-linejoin="round" stroke-linecap="butt" d="m210.38846 172.02887l15.5590515 0l0 15.5590515l-15.5590515 0z" fill-rule="evenodd"/><path fill="#000000" fill-opacity="0.0" d="m225.94751 172.02887l15.5590515 0l0 15.5590515l-15.5590515 0z" fill-rule="evenodd"/><path stroke="#ffffff" stroke-width="1.0" stroke-linejoin="round" stroke-linecap="butt" d="m225.94751 172.02887l15.5590515 0l0 15.5590515l-15.5590515 0z" fill-rule="evenodd"/><path fill="#000000" fill-opacity="0.0" d="m241.50656 172.02887l15.5590515 0l0 15.5590515l-15.5590515 0z" fill-rule="evenodd"/><path stroke="#ffffff" stroke-width="1.0" stroke-linejoin="round" stroke-linecap="butt" d="m241.50656 172.02887l15.5590515 0l0 15.5590515l-15.5590515 0z" fill-rule="evenodd"/><path fill="#000000" fill-opacity="0.0" d="m257.0656 172.02887l15.5590515 0l0 15.5590515l-15.5590515 0z" fill-rule="evenodd"/><path stroke="#ffffff" stroke-width="1.0" stroke-linejoin="round" stroke-linecap="butt" d="m257.0656 172.02887l15.5590515 0l0 15.5590515l-15.5590515 0z" fill-rule="evenodd"/><path fill="#000000" fill-opacity="0.0" d="m272.62466 172.02887l15.5590515 0l0 15.5590515l-15.5590515 0z" fill-rule="evenodd"/><path stroke="#ffffff" stroke-width="1.0" stroke-linejoin="round" stroke-linecap="butt" d="m272.62466 172.02887l15.5590515 0l0 15.5590515l-15.5590515 0z" fill-rule="evenodd"/><path fill="#000000" fill-opacity="0.0" d="m288.18372 172.02887l15.5590515 0l0 15.5590515l-15.5590515 0z" fill-rule="evenodd"/><path stroke="#ffffff" stroke-width="1.0" stroke-linejoin="round" stroke-linecap="butt" d="m288.18372 172.02887l15.5590515 0l0 15.5590515l-15.5590515 0z" fill-rule="evenodd"/><path fill="#000000" fill-opacity="0.0" d="m303.74277 172.02887l15.559082 0l0 15.5590515l-15.559082 0z" fill-rule="evenodd"/><path stroke="#ffffff" stroke-width="1.0" stroke-linejoin="round" stroke-linecap="butt" d="m303.74277 172.02887l15.559082 0l0 15.5590515l-15.559082 0z" fill-rule="evenodd"/><path fill="#000000" fill-opacity="0.0" d="m319.30185 172.02887l15.5590515 0l0 15.5590515l-15.5590515 0z" fill-rule="evenodd"/><path stroke="#ffffff" stroke-width="1.0" stroke-linejoin="round" stroke-linecap="butt" d="m319.30185 172.02887l15.5590515 0l0 15.5590515l-15.5590515 0z" fill-rule="evenodd"/><path fill="#000000" fill-opacity="0.0" d="m334.8609 172.02887l15.5590515 0l0 15.5590515l-15.5590515 0z" fill-rule="evenodd"/><path stroke="#ffffff" stroke-width="1.0" stroke-linejoin="round" stroke-linecap="butt" d="m334.8609 172.02887l15.5590515 0l0 15.5590515l-15.5590515 0z" fill-rule="evenodd"/><path fill="#000000" fill-opacity="0.0" d="m350.41995 172.02887l15.5590515 0l0 15.5590515l-15.5590515 0z" fill-rule="evenodd"/><path stroke="#ffffff" stroke-width="1.0" stroke-linejoin="round" stroke-linecap="butt" d="m350.41995 172.02887l15.5590515 0l0 15.5590515l-15.5590515 0z" fill-rule="evenodd"/><path fill="#000000" fill-opacity="0.0" d="m365.979 172.02887l15.5590515 0l0 15.5590515l-15.5590515 0z" fill-rule="evenodd"/><path stroke="#ffffff" stroke-width="1.0" stroke-linejoin="round" stroke-linecap="butt" d="m365.979 172.02887l15.5590515 0l0 15.5590515l-15.5590515 0z" fill-rule="evenodd"/><path fill="#000000" fill-opacity="0.0" d="m381.53806 172.02887l15.5590515 0l0 15.5590515l-15.5590515 0z" fill-rule="evenodd"/><path stroke="#ffffff" stroke-width="1.0" stroke-linejoin="round" stroke-linecap="butt" d="m381.53806 172.02887l15.5590515 0l0 15.5590515l-15.5590515 0z" fill-rule="evenodd"/><path fill="#000000" fill-opacity="0.0" d="m397.0971 172.02887l15.5590515 0l0 15.5590515l-15.5590515 0z" fill-rule="evenodd"/><path stroke="#ffffff" stroke-width="1.0" stroke-linejoin="round" stroke-linecap="butt" d="m397.0971 172.02887l15.5590515 0l0 15.5590515l-15.5590515 0z" fill-rule="evenodd"/><path fill="#000000" fill-opacity="0.0" d="m412.65616 172.02887l15.5590515 0l0 15.5590515l-15.5590515 0z" fill-rule="evenodd"/><path stroke="#ffffff" stroke-width="1.0" stroke-linejoin="round" stroke-linecap="butt" d="m412.65616 172.02887l15.5590515 0l0 15.5590515l-15.5590515 0z" fill-rule="evenodd"/><path fill="#000000" fill-opacity="0.0" d="m428.2152 172.02887l15.559082 0l0 15.5590515l-15.559082 0z" fill-rule="evenodd"/><path stroke="#ffffff" stroke-width="1.0" stroke-linejoin="round" stroke-linecap="butt" d="m428.2152 172.02887l15.559082 0l0 15.5590515l-15.559082 0z" fill-rule="evenodd"/><path fill="#000000" fill-opacity="0.0" d="m443.7743 172.02887l15.5590515 0l0 15.5590515l-15.5590515 0z" fill-rule="evenodd"/><path stroke="#ffffff" stroke-width="1.0" stroke-linejoin="round" stroke-linecap="butt" d="m443.7743 172.02887l15.5590515 0l0 15.5590515l-15.5590515 0z" fill-rule="evenodd"/><path fill="#000000" fill-opacity="0.0" d="m459.33334 172.02887l15.5590515 0l0 15.5590515l-15.5590515 0z" fill-rule="evenodd"/><path stroke="#ffffff" stroke-width="1.0" stroke-linejoin="round" stroke-linecap="butt" d="m459.33334 172.02887l15.5590515 0l0 15.5590515l-15.5590515 0z" fill-rule="evenodd"/><path fill="#000000" fill-opacity="0.0" d="m474.8924 172.02887l15.5590515 0l0 15.5590515l-15.5590515 0z" fill-rule="evenodd"/><path stroke="#ffffff" stroke-width="1.0" stroke-linejoin="round" stroke-linecap="butt" d="m474.8924 172.02887l15.5590515 0l0 15.5590515l-15.5590515 0z" fill-rule="evenodd"/><path fill="#000000" fill-opacity="0.0" d="m490.45145 172.02887l15.5590515 0l0 15.5590515l-15.5590515 0z" fill-rule="evenodd"/><path stroke="#ffffff" stroke-width="1.0" stroke-linejoin="round" stroke-linecap="butt" d="m490.45145 172.02887l15.5590515 0l0 15.5590515l-15.5590515 0z" fill-rule="evenodd"/><path fill="#000000" fill-opacity="0.0" d="m506.0105 172.02887l15.559082 0l0 15.5590515l-15.559082 0z" fill-rule="evenodd"/><path stroke="#ffffff" stroke-width="1.0" stroke-linejoin="round" stroke-linecap="butt" d="m506.0105 172.02887l15.559082 0l0 15.5590515l-15.559082 0z" fill-rule="evenodd"/><path fill="#000000" fill-opacity="0.0" d="m117.580055 204.84514l15.559059 0l0 15.559067l-15.559059 0z" fill-rule="evenodd"/><path stroke="#ffffff" stroke-width="1.0" stroke-linejoin="round" stroke-linecap="butt" d="m117.580055 204.84514l15.559059 0l0 15.559067l-15.559059 0z" fill-rule="evenodd"/><path fill="#000000" fill-opacity="0.0" d="m133.13911 204.84514l15.5590515 0l0 15.559067l-15.5590515 0z" fill-rule="evenodd"/><path stroke="#ffffff" stroke-width="1.0" stroke-linejoin="round" stroke-linecap="butt" d="m133.13911 204.84514l15.5590515 0l0 15.559067l-15.5590515 0z" fill-rule="evenodd"/><path fill="#000000" fill-opacity="0.0" d="m148.69817 204.84514l15.5590515 0l0 15.559067l-15.5590515 0z" fill-rule="evenodd"/><path stroke="#ffffff" stroke-width="1.0" stroke-linejoin="round" stroke-linecap="butt" d="m148.69817 204.84514l15.5590515 0l0 15.559067l-15.5590515 0z" fill-rule="evenodd"/><path fill="#000000" fill-opacity="0.0" d="m164.25722 204.84514l15.5590515 0l0 15.559067l-15.5590515 0z" fill-rule="evenodd"/><path stroke="#ffffff" stroke-width="1.0" stroke-linejoin="round" stroke-linecap="butt" d="m164.25722 204.84514l15.5590515 0l0 15.559067l-15.5590515 0z" fill-rule="evenodd"/><path fill="#000000" fill-opacity="0.0" d="m179.81627 204.84514l15.559067 0l0 15.559067l-15.559067 0z" fill-rule="evenodd"/><path stroke="#ffffff" stroke-width="1.0" stroke-linejoin="round" stroke-linecap="butt" d="m179.81627 204.84514l15.559067 0l0 15.559067l-15.559067 0z" fill-rule="evenodd"/><path fill="#000000" fill-opacity="0.0" d="m195.37534 204.84514l15.5590515 0l0 15.559067l-15.5590515 0z" fill-rule="evenodd"/><path stroke="#ffffff" stroke-width="1.0" stroke-linejoin="round" stroke-linecap="butt" d="m195.37534 204.84514l15.5590515 0l0 15.559067l-15.5590515 0z" fill-rule="evenodd"/><path fill="#000000" fill-opacity="0.0" d="m210.93439 204.84514l15.5590515 0l0 15.559067l-15.5590515 0z" fill-rule="evenodd"/><path stroke="#ffffff" stroke-width="1.0" stroke-linejoin="round" stroke-linecap="butt" d="m210.93439 204.84514l15.5590515 0l0 15.559067l-15.5590515 0z" fill-rule="evenodd"/><path fill="#000000" fill-opacity="0.0" d="m226.49344 204.84514l15.5590515 0l0 15.559067l-15.5590515 0z" fill-rule="evenodd"/><path stroke="#ffffff" stroke-width="1.0" stroke-linejoin="round" stroke-linecap="butt" d="m226.49344 204.84514l15.5590515 0l0 15.559067l-15.5590515 0z" fill-rule="evenodd"/><path fill="#000000" fill-opacity="0.0" d="m242.05249 204.84514l15.5590515 0l0 15.559067l-15.5590515 0z" fill-rule="evenodd"/><path stroke="#ffffff" stroke-width="1.0" stroke-linejoin="round" stroke-linecap="butt" d="m242.05249 204.84514l15.5590515 0l0 15.559067l-15.5590515 0z" fill-rule="evenodd"/><path fill="#000000" fill-opacity="0.0" d="m257.61154 204.84514l15.5590515 0l0 15.559067l-15.5590515 0z" fill-rule="evenodd"/><path stroke="#ffffff" stroke-width="1.0" stroke-linejoin="round" stroke-linecap="butt" d="m257.61154 204.84514l15.5590515 0l0 15.559067l-15.5590515 0z" fill-rule="evenodd"/><path fill="#000000" fill-opacity="0.0" d="m273.1706 204.84514l15.5590515 0l0 15.559067l-15.5590515 0z" fill-rule="evenodd"/><path stroke="#ffffff" stroke-width="1.0" stroke-linejoin="round" stroke-linecap="butt" d="m273.1706 204.84514l15.5590515 0l0 15.559067l-15.5590515 0z" fill-rule="evenodd"/><path fill="#000000" fill-opacity="0.0" d="m288.72964 204.84514l15.559082 0l0 15.559067l-15.559082 0z" fill-rule="evenodd"/><path stroke="#ffffff" stroke-width="1.0" stroke-linejoin="round" stroke-linecap="butt" d="m288.72964 204.84514l15.559082 0l0 15.559067l-15.559082 0z" fill-rule="evenodd"/><path fill="#000000" fill-opacity="0.0" d="m304.28873 204.84514l15.5590515 0l0 15.559067l-15.5590515 0z" fill-rule="evenodd"/><path stroke="#ffffff" stroke-width="1.0" stroke-linejoin="round" stroke-linecap="butt" d="m304.28873 204.84514l15.5590515 0l0 15.559067l-15.5590515 0z" fill-rule="evenodd"/><path fill="#000000" fill-opacity="0.0" d="m319.84778 204.84514l15.5590515 0l0 15.559067l-15.5590515 0z" fill-rule="evenodd"/><path stroke="#ffffff" stroke-width="1.0" stroke-linejoin="round" stroke-linecap="butt" d="m319.84778 204.84514l15.5590515 0l0 15.559067l-15.5590515 0z" fill-rule="evenodd"/><path fill="#000000" fill-opacity="0.0" d="m335.40683 204.84514l15.5590515 0l0 15.559067l-15.5590515 0z" fill-rule="evenodd"/><path stroke="#ffffff" stroke-width="1.0" stroke-linejoin="round" stroke-linecap="butt" d="m335.40683 204.84514l15.5590515 0l0 15.559067l-15.5590515 0z" fill-rule="evenodd"/><path fill="#000000" fill-opacity="0.0" d="m350.96588 204.84514l15.5590515 0l0 15.559067l-15.5590515 0z" fill-rule="evenodd"/><path stroke="#ffffff" stroke-width="1.0" stroke-linejoin="round" stroke-linecap="butt" d="m350.96588 204.84514l15.5590515 0l0 15.559067l-15.5590515 0z" fill-rule="evenodd"/><path fill="#000000" fill-opacity="0.0" d="m366.52493 204.84514l15.5590515 0l0 15.559067l-15.5590515 0z" fill-rule="evenodd"/><path stroke="#ffffff" stroke-width="1.0" stroke-linejoin="round" stroke-linecap="butt" d="m366.52493 204.84514l15.5590515 0l0 15.559067l-15.5590515 0z" fill-rule="evenodd"/><path fill="#000000" fill-opacity="0.0" d="m382.08398 204.84514l15.5590515 0l0 15.559067l-15.5590515 0z" fill-rule="evenodd"/><path stroke="#ffffff" stroke-width="1.0" stroke-linejoin="round" stroke-linecap="butt" d="m382.08398 204.84514l15.5590515 0l0 15.559067l-15.5590515 0z" fill-rule="evenodd"/><path fill="#000000" fill-opacity="0.0" d="m397.64304 204.84514l15.5590515 0l0 15.559067l-15.5590515 0z" fill-rule="evenodd"/><path stroke="#ffffff" stroke-width="1.0" stroke-linejoin="round" stroke-linecap="butt" d="m397.64304 204.84514l15.5590515 0l0 15.559067l-15.5590515 0z" fill-rule="evenodd"/><path fill="#000000" fill-opacity="0.0" d="m413.2021 204.84514l15.559082 0l0 15.559067l-15.559082 0z" fill-rule="evenodd"/><path stroke="#ffffff" stroke-width="1.0" stroke-linejoin="round" stroke-linecap="butt" d="m413.2021 204.84514l15.559082 0l0 15.559067l-15.559082 0z" fill-rule="evenodd"/><path fill="#000000" fill-opacity="0.0" d="m428.76117 204.84514l15.5590515 0l0 15.559067l-15.5590515 0z" fill-rule="evenodd"/><path stroke="#ffffff" stroke-width="1.0" stroke-linejoin="round" stroke-linecap="butt" d="m428.76117 204.84514l15.5590515 0l0 15.559067l-15.5590515 0z" fill-rule="evenodd"/><path fill="#000000" fill-opacity="0.0" d="m444.32022 204.84514l15.5590515 0l0 15.559067l-15.5590515 0z" fill-rule="evenodd"/><path stroke="#ffffff" stroke-width="1.0" stroke-linejoin="round" stroke-linecap="butt" d="m444.32022 204.84514l15.5590515 0l0 15.559067l-15.5590515 0z" fill-rule="evenodd"/><path fill="#000000" fill-opacity="0.0" d="m70.95538 40.76378l30.519684 0l0 15.559055l-30.519684 0z" fill-rule="evenodd"/><path fill="#ffffff" d="m99.03134 53.343307l-1.171875 0l0 -7.46875q-0.421875 0.40625 -1.109375 0.8125q-0.6875 0.40625 -1.234375 0.609375l0 -1.140625q0.984375 -0.453125 1.71875 -1.109375q0.734375 -0.671875 1.03125 -1.28125l0.765625 0l0 9.578125z" fill-rule="nonzero"/><path fill="#000000" fill-opacity="0.0" d="m70.95538 73.580055l30.519684 0l0 15.5590515l-30.519684 0z" fill-rule="evenodd"/><path fill="#ffffff" d="m100.76572 85.03458l0 1.125l-6.296875 0q-0.015625 -0.421875 0.140625 -0.8125q0.234375 -0.640625 0.765625 -1.265625q0.53125 -0.625 1.53125 -1.453125q1.5625 -1.265625 2.109375 -2.015625q0.546875 -0.75 0.546875 -1.40625q0 -0.703125 -0.5 -1.171875q-0.5 -0.484375 -1.296875 -0.484375q-0.859375 0 -1.375 0.515625q-0.5 0.5 -0.5 1.390625l-1.203125 -0.109375q0.125 -1.359375 0.921875 -2.0625q0.8125 -0.703125 2.171875 -0.703125q1.375 0 2.171875 0.765625q0.8125 0.75 0.8125 1.875q0 0.578125 -0.234375 1.140625q-0.234375 0.546875 -0.78125 1.15625q-0.546875 0.609375 -1.8125 1.671875q-1.046875 0.890625 -1.359375 1.21875q-0.296875 0.3125 -0.484375 0.625l4.671875 0z" fill-rule="nonzero"/><path fill="#000000" fill-opacity="0.0" d="m70.95538 106.396324l30.519684 0l0 15.559059l-30.519684 0z" fill-rule="evenodd"/><path fill="#ffffff" d="m94.62509 116.46023l1.171875 -0.15625q0.203125 1.0 0.6875 1.4375q0.484375 0.4375 1.171875 0.4375q0.828125 0 1.390625 -0.578125q0.578125 -0.578125 0.578125 -1.421875q0 -0.796875 -0.53125 -1.3125q-0.515625 -0.53125 -1.328125 -0.53125q-0.34375 0 -0.828125 0.125l0.125 -1.03125q0.125 0.015625 0.1875 0.015625q0.75 0 1.34375 -0.390625q0.609375 -0.390625 0.609375 -1.203125q0 -0.640625 -0.4375 -1.0625q-0.4375 -0.421875 -1.125 -0.421875q-0.6875 0 -1.140625 0.4375q-0.453125 0.421875 -0.59375 1.28125l-1.171875 -0.21875q0.21875 -1.171875 0.984375 -1.8125q0.765625 -0.65625 1.890625 -0.65625q0.78125 0 1.4375 0.34375q0.65625 0.328125 1.0 0.90625q0.359375 0.578125 0.359375 1.234375q0 0.609375 -0.34375 1.125q-0.328125 0.5 -0.96875 0.796875q0.84375 0.203125 1.3125 0.828125q0.46875 0.609375 0.46875 1.53125q0 1.25 -0.921875 2.125q-0.90625 0.859375 -2.296875 0.859375q-1.25 0 -2.09375 -0.75q-0.828125 -0.75 -0.9375 -1.9375z" fill-rule="nonzero"/><path fill="#000000" fill-opacity="0.0" d="m70.95538 139.2126l30.519684 0l0 15.5590515l-30.519684 0z" fill-rule="evenodd"/><path fill="#ffffff" d="m98.37509 151.79213l0 -2.28125l-4.140625 0l0 -1.078125l4.34375 -6.1875l0.96875 0l0 6.1875l1.28125 0l0 1.078125l-1.28125 0l0 2.28125l-1.171875 0zm0 -3.359375l0 -4.296875l-2.984375 4.296875l2.984375 0z" fill-rule="nonzero"/><path fill="#000000" fill-opacity="0.0" d="m70.95538 172.02887l30.519684 0l0 15.5590515l-30.519684 0z" fill-rule="evenodd"/><path fill="#ffffff" d="m94.60947 182.1084l1.234375 -0.109375q0.140625 0.90625 0.640625 1.359375q0.5 0.453125 1.203125 0.453125q0.84375 0 1.421875 -0.640625q0.59375 -0.640625 0.59375 -1.6875q0 -1.0 -0.5625 -1.578125q-0.5625 -0.59375 -1.484375 -0.59375q-0.5625 0 -1.015625 0.265625q-0.453125 0.25 -0.71875 0.671875l-1.09375 -0.15625l0.921875 -4.890625l4.75 0l0 1.109375l-3.8125 0l-0.515625 2.5625q0.859375 -0.59375 1.796875 -0.59375q1.25 0 2.109375 0.875q0.859375 0.859375 0.859375 2.21875q0 1.296875 -0.75 2.234375q-0.921875 1.15625 -2.5 1.15625q-1.3125 0 -2.140625 -0.71875q-0.8125 -0.734375 -0.9375 -1.9375z" fill-rule="nonzero"/><path fill="#000000" fill-opacity="0.0" d="m71.50131 204.84514l30.519684 0l0 15.559067l-30.519684 0z" fill-rule="evenodd"/><path fill="#ffffff" d="m101.23352 210.22154l-1.15625 0.09375q-0.15625 -0.6875 -0.4375 -1.0q-0.484375 -0.5 -1.171875 -0.5q-0.5625 0 -0.984375 0.3125q-0.5625 0.390625 -0.890625 1.171875q-0.3125 0.765625 -0.3125 2.203125q0.421875 -0.640625 1.03125 -0.953125q0.609375 -0.3125 1.28125 -0.3125q1.171875 0 1.984375 0.859375q0.828125 0.859375 0.828125 2.234375q0 0.890625 -0.390625 1.671875q-0.375 0.765625 -1.0625 1.171875q-0.671875 0.40625 -1.53125 0.40625q-1.46875 0 -2.390625 -1.0625q-0.921875 -1.078125 -0.921875 -3.5625q0 -2.765625 1.015625 -4.015625q0.90625 -1.09375 2.40625 -1.09375q1.125 0 1.84375 0.640625q0.71875 0.625 0.859375 1.734375zm-4.78125 4.109375q0 0.609375 0.25 1.171875q0.265625 0.546875 0.71875 0.84375q0.46875 0.28125 0.984375 0.28125q0.734375 0 1.265625 -0.59375q0.546875 -0.609375 0.546875 -1.640625q0 -0.984375 -0.53125 -1.546875q-0.53125 -0.578125 -1.328125 -0.578125q-0.796875 0 -1.359375 0.578125q-0.546875 0.5625 -0.546875 1.484375z" fill-rule="nonzero"/><path fill="#000000" fill-opacity="0.0" d="m71.50131 237.66142l30.519684 0l0 15.5590515l-30.519684 0z" fill-rule="evenodd"/><path fill="#ffffff" d="m90.25537 250.24095l0 -1.328125l1.328125 0l0 1.328125l-1.328125 0zm4.4375 0l0 -1.328125l1.328125 0l0 1.328125l-1.328125 0zm4.4375 0l0 -1.328125l1.34375 0l0 1.328125l-1.34375 0z" fill-rule="nonzero"/><path fill="#000000" fill-opacity="0.0" d="m70.95538 270.4777l30.519684 0l0 15.5590515l-30.519684 0z" fill-rule="evenodd"/><path fill="#ffffff" d="m94.50009 283.05722l1.453125 -6.90625l1.0625 0l-0.25 1.203125q0.6875 -0.71875 1.296875 -1.03125q0.609375 -0.328125 1.234375 -0.328125q0.84375 0 1.3125 0.453125q0.484375 0.453125 0.484375 1.21875q0 0.375 -0.171875 1.203125l-0.875 4.1875l-1.171875 0l0.921875 -4.375q0.125 -0.640625 0.125 -0.953125q0 -0.34375 -0.234375 -0.546875q-0.234375 -0.21875 -0.6875 -0.21875q-0.90625 0 -1.609375 0.65625q-0.703125 0.640625 -1.03125 2.21875l-0.671875 3.21875l-1.1875 0z" fill-rule="nonzero"/><path fill="#000000" fill-opacity="0.0" d="m117.03412 270.4777l15.5590515 0l0 15.5590515l-15.5590515 0z" fill-rule="evenodd"/><path stroke="#ffffff" stroke-width="1.0" stroke-linejoin="round" stroke-linecap="butt" d="m117.03412 270.4777l15.5590515 0l0 15.5590515l-15.5590515 0z" fill-rule="evenodd"/><path fill="#000000" fill-opacity="0.0" d="m132.59317 270.4777l15.559067 0l0 15.5590515l-15.559067 0z" fill-rule="evenodd"/><path stroke="#ffffff" stroke-width="1.0" stroke-linejoin="round" stroke-linecap="butt" d="m132.59317 270.4777l15.559067 0l0 15.5590515l-15.559067 0z" fill-rule="evenodd"/><path fill="#000000" fill-opacity="0.0" d="m148.15224 270.4777l15.5590515 0l0 15.5590515l-15.5590515 0z" fill-rule="evenodd"/><path stroke="#ffffff" stroke-width="1.0" stroke-linejoin="round" stroke-linecap="butt" d="m148.15224 270.4777l15.5590515 0l0 15.5590515l-15.5590515 0z" fill-rule="evenodd"/><path fill="#000000" fill-opacity="0.0" d="m163.71129 270.4777l15.5590515 0l0 15.5590515l-15.5590515 0z" fill-rule="evenodd"/><path stroke="#ffffff" stroke-width="1.0" stroke-linejoin="round" stroke-linecap="butt" d="m163.71129 270.4777l15.5590515 0l0 15.5590515l-15.5590515 0z" fill-rule="evenodd"/><path fill="#000000" fill-opacity="0.0" d="m179.27034 270.4777l15.5590515 0l0 15.5590515l-15.5590515 0z" fill-rule="evenodd"/><path stroke="#ffffff" stroke-width="1.0" stroke-linejoin="round" stroke-linecap="butt" d="m179.27034 270.4777l15.5590515 0l0 15.5590515l-15.5590515 0z" fill-rule="evenodd"/></g></svg>