<svg version="1.1" viewBox="0.0 0.0 685.8792650918635 326.8031496062992" fill="none" stroke="none" stroke-linecap="square" stroke-miterlimit="10" xmlns:xlink="http://www.w3.org/1999/xlink" xmlns="http://www.w3.org/2000/svg"><clipPath id="p.0"><path d="m0 0l685.8793 0l0 326.80316l-685.8793 0l0 -326.80316z" clip-rule="nonzero"/></clipPath><g clip-path="url(#p.0)"><path fill="#000000" fill-opacity="0.0" d="m0 0l685.8793 0l0 326.80316l-685.8793 0z" fill-rule="evenodd"/><path fill="#000000" fill-opacity="0.0" d="m117.03412 57.171917l15.5590515 0l0 15.559055l-15.5590515 0z" fill-rule="evenodd"/><path stroke="#ffffff" stroke-width="1.0" stroke-linejoin="round" stroke-linecap="butt" d="m117.03412 57.171917l15.5590515 0l0 15.559055l-15.5590515 0z" fill-rule="evenodd"/><path fill="#000000" fill-opacity="0.0" d="m132.59317 57.171917l15.559067 0l0 15.559055l-15.559067 0z" fill-rule="evenodd"/><path stroke="#ffffff" stroke-width="1.0" stroke-linejoin="round" stroke-linecap="butt" d="m132.59317 57.171917l15.559067 0l0 15.559055l-15.559067 0z" fill-rule="evenodd"/><path fill="#000000" fill-opacity="0.0" d="m148.15224 57.171917l15.5590515 0l0 15.559055l-15.5590515 0z" fill-rule="evenodd"/><path stroke="#ffffff" stroke-width="1.0" stroke-linejoin="round" stroke-linecap="butt" d="m148.15224 57.171917l15.5590515 0l0 15.559055l-15.5590515 0z" fill-rule="evenodd"/><path fill="#000000" fill-opacity="0.0" d="m163.71129 57.171917l15.5590515 0l0 15.559055l-15.5590515 0z" fill-rule="evenodd"/><path stroke="#ffffff" stroke-width="1.0" stroke-linejoin="round" stroke-linecap="butt" d="m163.71129 57.171917l15.5590515 0l0 15.559055l-15.5590515 0z" fill-rule="evenodd"/><path fill="#000000" fill-opacity="0.0" d="m179.27034 57.171917l15.5590515 0l0 15.559055l-15.5590515 0z" fill-rule="evenodd"/><path stroke="#ffffff" stroke-width="1.0" stroke-linejoin="round" stroke-linecap="butt" d="m179.27034 57.171917l15.5590515 0l0 15.559055l-15.5590515 0z" fill-rule="evenodd"/><path fill="#000000" fill-opacity="0.0" d="m194.82939 57.171917l15.559067 0l0 15.559055l-15.559067 0z" fill-rule="evenodd"/><path stroke="#ffffff" stroke-width="1.0" stroke-linejoin="round" stroke-linecap="butt" d="m194.82939 57.171917l15.559067 0l0 15.559055l-15.559067 0z" fill-rule="evenodd"/><path fill="#000000" fill-opacity="0.0" d="m210.38846 57.171917l15.5590515 0l0 15.559055l-15.5590515 0z" fill-rule="evenodd"/><path stroke="#ffffff" stroke-width="1.0" stroke-linejoin="round" stroke-linecap="butt" d="m210.38846 57.171917l15.5590515 0l0 15.559055l-15.5590515 0z" fill-rule="evenodd"/><path fill="#000000" fill-opacity="0.0" d="m225.94751 57.171917l15.5590515 0l0 15.559055l-15.5590515 0z" fill-rule="evenodd"/><path stroke="#ffffff" stroke-width="1.0" stroke-linejoin="round" stroke-linecap="butt" d="m225.94751 57.171917l15.5590515 0l0 15.559055l-15.5590515 0z" fill-rule="evenodd"/><path fill="#000000" fill-opacity="0.0" d="m241.50656 57.171917l15.5590515 0l0 15.559055l-15.5590515 0z" fill-rule="evenodd"/><path stroke="#ffffff" stroke-width="1.0" stroke-linejoin="round" stroke-linecap="butt" d="m241.50656 57.171917l15.5590515 0l0 15.559055l-15.5590515 0z" fill-rule="evenodd"/><path fill="#000000" fill-opacity="0.0" d="m257.0656 57.171917l15.5590515 0l0 15.559055l-15.5590515 0z" fill-rule="evenodd"/><path stroke="#ffffff" stroke-width="1.0" stroke-linejoin="round" stroke-linecap="butt" d="m257.0656 57.171917l15.5590515 0l0 15.559055l-15.5590515 0z" fill-rule="evenodd"/><path fill="#000000" fill-opacity="0.0" d="m272.62466 57.171917l15.5590515 0l0 15.559055l-15.5590515 0z" fill-rule="evenodd"/><path stroke="#ffffff" stroke-width="1.0" stroke-linejoin="round" stroke-linecap="butt" d="m272.62466 57.171917l15.5590515 0l0 15.559055l-15.5590515 0z" fill-rule="evenodd"/><path fill="#000000" fill-opacity="0.0" d="m288.18372 57.171917l15.5590515 0l0 15.559055l-15.5590515 0z" fill-rule="evenodd"/><path stroke="#ffffff" stroke-width="1.0" stroke-linejoin="round" stroke-linecap="butt" d="m288.18372 57.171917l15.5590515 0l0 15.559055l-15.5590515 0z" fill-rule="evenodd"/><path fill="#000000" fill-opacity="0.0" d="m303.74277 57.171917l15.559082 0l0 15.559055l-15.559082 0z" fill-rule="evenodd"/><path stroke="#ffffff" stroke-width="1.0" stroke-linejoin="round" stroke-linecap="butt" d="m303.74277 57.171917l15.559082 0l0 15.559055l-15.559082 0z" fill-rule="evenodd"/><path fill="#000000" fill-opacity="0.0" d="m319.30185 57.171917l15.5590515 0l0 15.559055l-15.5590515 0z" fill-rule="evenodd"/><path stroke="#ffffff" stroke-width="1.0" stroke-linejoin="round" stroke-linecap="butt" d="m319.30185 57.171917l15.5590515 0l0 15.559055l-15.5590515 0z" fill-rule="evenodd"/><path fill="#000000" fill-opacity="0.0" d="m334.8609 57.171917l15.5590515 0l0 15.559055l-15.5590515 0z" fill-rule="evenodd"/><path stroke="#ffffff" stroke-width="1.0" stroke-linejoin="round" stroke-linecap="butt" d="m334.8609 57.171917l15.5590515 0l0 15.559055l-15.5590515 0z" fill-rule="evenodd"/><path fill="#000000" fill-opacity="0.0" d="m350.41995 57.171917l15.5590515 0l0 15.559055l-15.5590515 0z" fill-rule="evenodd"/><path stroke="#ffffff" stroke-width="1.0" stroke-linejoin="round" stroke-linecap="butt" d="m350.41995 57.171917l15.5590515 0l0 15.559055l-15.5590515 0z" fill-rule="evenodd"/><path fill="#000000" fill-opacity="0.0" d="m365.979 57.171917l15.5590515 0l0 15.559055l-15.5590515 0z" fill-rule="evenodd"/><path stroke="#ffffff" stroke-width="1.0" stroke-linejoin="round" stroke-linecap="butt" d="m365.979 57.171917l15.5590515 0l0 15.559055l-15.5590515 0z" fill-rule="evenodd"/><path fill="#000000" fill-opacity="0.0" d="m381.53806 57.171917l15.5590515 0l0 15.559055l-15.5590515 0z" fill-rule="evenodd"/><path stroke="#ffffff" stroke-width="1.0" stroke-linejoin="round" stroke-linecap="butt" d="m381.53806 57.171917l15.5590515 0l0 15.559055l-15.5590515 0z" fill-rule="evenodd"/><path fill="#000000" fill-opacity="0.0" d="m397.0971 57.171917l15.5590515 0l0 15.559055l-15.5590515 0z" fill-rule="evenodd"/><path stroke="#ffffff" stroke-width="1.0" stroke-linejoin="round" stroke-linecap="butt" d="m397.0971 57.171917l15.5590515 0l0 15.559055l-15.5590515 0z" fill-rule="evenodd"/><path fill="#000000" fill-opacity="0.0" d="m412.65616 57.171917l15.5590515 0l0 15.559055l-15.5590515 0z" fill-rule="evenodd"/><path stroke="#ffffff" stroke-width="1.0" stroke-linejoin="round" stroke-linecap="butt" d="m412.65616 57.171917l15.5590515 0l0 15.559055l-15.5590515 0z" fill-rule="evenodd"/><path fill="#000000" fill-opacity="0.0" d="m428.2152 57.171917l15.559082 0l0 15.559055l-15.559082 0z" fill-rule="evenodd"/><path stroke="#ffffff" stroke-width="1.0" stroke-linejoin="round" stroke-linecap="butt" d="m428.2152 57.171917l15.559082 0l0 15.559055l-15.559082 0z" fill-rule="evenodd"/><path fill="#000000" fill-opacity="0.0" d="m443.7743 57.171917l15.5590515 0l0 15.559055l-15.5590515 0z" fill-rule="evenodd"/><path stroke="#ffffff" stroke-width="1.0" stroke-linejoin="round" stroke-linecap="butt" d="m443.7743 57.171917l15.5590515 0l0 15.559055l-15.5590515 0z" fill-rule="evenodd"/><path fill="#000000" fill-opacity="0.0" d="m459.33334 57.171917l15.5590515 0l0 15.559055l-15.5590515 0z" fill-rule="evenodd"/><path stroke="#ffffff" stroke-width="1.0" stroke-linejoin="round" stroke-linecap="butt" d="m459.33334 57.171917l15.5590515 0l0 15.559055l-15.5590515 0z" fill-rule="evenodd"/><path fill="#000000" fill-opacity="0.0" d="m474.8924 57.171917l15.5590515 0l0 15.559055l-15.5590515 0z" fill-rule="evenodd"/><path stroke="#ffffff" stroke-width="1.0" stroke-linejoin="round" stroke-linecap="butt" d="m474.8924 57.171917l15.5590515 0l0 15.559055l-15.5590515 0z" fill-rule="evenodd"/><path fill="#000000" fill-opacity="0.0" d="m490.45145 57.171917l15.5590515 0l0 15.559055l-15.5590515 0z" fill-rule="evenodd"/><path stroke="#ffffff" stroke-width="1.0" stroke-linejoin="round" stroke-linecap="butt" d="m490.45145 57.171917l15.5590515 0l0 15.559055l-15.5590515 0z" fill-rule="evenodd"/><path fill="#000000" fill-opacity="0.0" d="m506.0105 57.171917l15.559082 0l0 15.559055l-15.559082 0z" fill-rule="evenodd"/><path stroke="#ffffff" stroke-width="1.0" stroke-linejoin="round" stroke-linecap="butt" d="m506.0105 57.171917l15.559082 0l0 15.559055l-15.559082 0z" fill-rule="evenodd"/><path fill="#000000" fill-opacity="0.0" d="m521.5696 57.171917l15.559021 0l0 15.559055l-15.559021 0z" fill-rule="evenodd"/><path stroke="#ffffff" stroke-width="1.0" stroke-linejoin="round" stroke-linecap="butt" d="m521.5696 57.171917l15.559021 0l0 15.559055l-15.559021 0z" fill-rule="evenodd"/><path fill="#000000" fill-opacity="0.0" d="m537.1286 57.171917l15.559082 0l0 15.559055l-15.559082 0z" fill-rule="evenodd"/><path stroke="#ffffff" stroke-width="1.0" stroke-linejoin="round" stroke-linecap="butt" d="m537.1286 57.171917l15.559082 0l0 15.559055l-15.559082 0z" fill-rule="evenodd"/><path fill="#000000" fill-opacity="0.0" d="m552.6877 57.171917l15.559021 0l0 15.559055l-15.559021 0z" fill-rule="evenodd"/><path stroke="#ffffff" stroke-width="1.0" stroke-linejoin="round" stroke-linecap="butt" d="m552.6877 57.171917l15.559021 0l0 15.559055l-15.559021 0z" fill-rule="evenodd"/><path fill="#000000" fill-opacity="0.0" d="m568.2467 57.171917l15.559082 0l0 15.559055l-15.559082 0z" fill-rule="evenodd"/><path stroke="#ffffff" stroke-width="1.0" stroke-linejoin="round" stroke-linecap="butt" d="m568.2467 57.171917l15.559082 0l0 15.559055l-15.559082 0z" fill-rule="evenodd"/><path fill="#000000" fill-opacity="0.0" d="m117.03412 89.98819l15.5590515 0l0 15.5590515l-15.5590515 0z" fill-rule="evenodd"/><path stroke="#ffffff" stroke-width="1.0" stroke-linejoin="round" stroke-linecap="butt" d="m117.03412 89.98819l15.5590515 0l0 15.5590515l-15.5590515 0z" fill-rule="evenodd"/><path fill="#000000" fill-opacity="0.0" d="m132.59317 89.98819l15.559067 0l0 15.5590515l-15.559067 0z" fill-rule="evenodd"/><path stroke="#ffffff" stroke-width="1.0" stroke-linejoin="round" stroke-linecap="butt" d="m132.59317 89.98819l15.559067 0l0 15.5590515l-15.559067 0z" fill-rule="evenodd"/><path fill="#000000" fill-opacity="0.0" d="m148.15224 89.98819l15.5590515 0l0 15.5590515l-15.5590515 0z" fill-rule="evenodd"/><path stroke="#ffffff" stroke-width="1.0" stroke-linejoin="round" stroke-linecap="butt" d="m148.15224 89.98819l15.5590515 0l0 15.5590515l-15.5590515 0z" fill-rule="evenodd"/><path fill="#000000" fill-opacity="0.0" d="m163.71129 89.98819l15.5590515 0l0 15.5590515l-15.5590515 0z" fill-rule="evenodd"/><path stroke="#ffffff" stroke-width="1.0" stroke-linejoin="round" stroke-linecap="butt" d="m163.71129 89.98819l15.5590515 0l0 15.5590515l-15.5590515 0z" fill-rule="evenodd"/><path fill="#000000" fill-opacity="0.0" d="m179.27034 89.98819l15.5590515 0l0 15.5590515l-15.5590515 0z" fill-rule="evenodd"/><path stroke="#ffffff" stroke-width="1.0" stroke-linejoin="round" stroke-linecap="butt" d="m179.27034 89.98819l15.5590515 0l0 15.5590515l-15.5590515 0z" fill-rule="evenodd"/><path fill="#000000" fill-opacity="0.0" d="m194.82939 89.98819l15.559067 0l0 15.5590515l-15.559067 0z" fill-rule="evenodd"/><path stroke="#ffffff" stroke-width="1.0" stroke-linejoin="round" stroke-linecap="butt" d="m194.82939 89.98819l15.559067 0l0 15.5590515l-15.559067 0z" fill-rule="evenodd"/><path fill="#000000" fill-opacity="0.0" d="m210.38846 89.98819l15.5590515 0l0 15.5590515l-15.5590515 0z" fill-rule="evenodd"/><path stroke="#ffffff" stroke-width="1.0" stroke-linejoin="round" stroke-linecap="butt" d="m210.38846 89.98819l15.5590515 0l0 15.5590515l-15.5590515 0z" fill-rule="evenodd"/><path fill="#000000" fill-opacity="0.0" d="m225.94751 89.98819l15.5590515 0l0 15.5590515l-15.5590515 0z" fill-rule="evenodd"/><path stroke="#ffffff" stroke-width="1.0" stroke-linejoin="round" stroke-linecap="butt" d="m225.94751 89.98819l15.5590515 0l0 15.5590515l-15.5590515 0z" fill-rule="evenodd"/><path fill="#000000" fill-opacity="0.0" d="m241.50656 89.98819l15.5590515 0l0 15.5590515l-15.5590515 0z" fill-rule="evenodd"/><path stroke="#ffffff" stroke-width="1.0" stroke-linejoin="round" stroke-linecap="butt" d="m241.50656 89.98819l15.5590515 0l0 15.5590515l-15.5590515 0z" fill-rule="evenodd"/><path fill="#000000" fill-opacity="0.0" d="m257.0656 89.98819l15.5590515 0l0 15.5590515l-15.5590515 0z" fill-rule="evenodd"/><path stroke="#ffffff" stroke-width="1.0" stroke-linejoin="round" stroke-linecap="butt" d="m257.0656 89.98819l15.5590515 0l0 15.5590515l-15.5590515 0z" fill-rule="evenodd"/><path fill="#000000" fill-opacity="0.0" d="m272.62466 89.98819l15.5590515 0l0 15.5590515l-15.5590515 0z" fill-rule="evenodd"/><path stroke="#ffffff" stroke-width="1.0" stroke-linejoin="round" stroke-linecap="butt" d="m272.62466 89.98819l15.5590515 0l0 15.5590515l-15.5590515 0z" fill-rule="evenodd"/><path fill="#000000" fill-opacity="0.0" d="m288.18372 89.98819l15.5590515 0l0 15.5590515l-15.5590515 0z" fill-rule="evenodd"/><path stroke="#ffffff" stroke-width="1.0" stroke-linejoin="round" stroke-linecap="butt" d="m288.18372 89.98819l15.5590515 0l0 15.5590515l-15.5590515 0z" fill-rule="evenodd"/><path fill="#000000" fill-opacity="0.0" d="m303.74277 89.98819l15.559082 0l0 15.5590515l-15.559082 0z" fill-rule="evenodd"/><path stroke="#ffffff" stroke-width="1.0" stroke-linejoin="round" stroke-linecap="butt" d="m303.74277 89.98819l15.559082 0l0 15.5590515l-15.559082 0z" fill-rule="evenodd"/><path fill="#000000" fill-opacity="0.0" d="m319.30185 89.98819l15.5590515 0l0 15.5590515l-15.5590515 0z" fill-rule="evenodd"/><path stroke="#ffffff" stroke-width="1.0" stroke-linejoin="round" stroke-linecap="butt" d="m319.30185 89.98819l15.5590515 0l0 15.5590515l-15.5590515 0z" fill-rule="evenodd"/><path fill="#000000" fill-opacity="0.0" d="m334.8609 89.98819l15.5590515 0l0 15.5590515l-15.5590515 0z" fill-rule="evenodd"/><path stroke="#ffffff" stroke-width="1.0" stroke-linejoin="round" stroke-linecap="butt" d="m334.8609 89.98819l15.5590515 0l0 15.5590515l-15.5590515 0z" fill-rule="evenodd"/><path fill="#000000" fill-opacity="0.0" d="m350.41995 89.98819l15.5590515 0l0 15.5590515l-15.5590515 0z" fill-rule="evenodd"/><path stroke="#ffffff" stroke-width="1.0" stroke-linejoin="round" stroke-linecap="butt" d="m350.41995 89.98819l15.5590515 0l0 15.5590515l-15.5590515 0z" fill-rule="evenodd"/><path fill="#000000" fill-opacity="0.0" d="m365.979 89.98819l15.5590515 0l0 15.5590515l-15.5590515 0z" fill-rule="evenodd"/><path stroke="#ffffff" stroke-width="1.0" stroke-linejoin="round" stroke-linecap="butt" d="m365.979 89.98819l15.5590515 0l0 15.5590515l-15.5590515 0z" fill-rule="evenodd"/><path fill="#000000" fill-opacity="0.0" d="m381.53806 89.98819l15.5590515 0l0 15.5590515l-15.5590515 0z" fill-rule="evenodd"/><path stroke="#ffffff" stroke-width="1.0" stroke-linejoin="round" stroke-linecap="butt" d="m381.53806 89.98819l15.5590515 0l0 15.5590515l-15.5590515 0z" fill-rule="evenodd"/><path fill="#000000" fill-opacity="0.0" d="m397.0971 89.98819l15.5590515 0l0 15.5590515l-15.5590515 0z" fill-rule="evenodd"/><path stroke="#ffffff" stroke-width="1.0" stroke-linejoin="round" stroke-linecap="butt" d="m397.0971 89.98819l15.5590515 0l0 15.5590515l-15.5590515 0z" fill-rule="evenodd"/><path fill="#000000" fill-opacity="0.0" d="m412.65616 89.98819l15.5590515 0l0 15.5590515l-15.5590515 0z" fill-rule="evenodd"/><path stroke="#ffffff" stroke-width="1.0" stroke-linejoin="round" stroke-linecap="butt" d="m412.65616 89.98819l15.5590515 0l0 15.5590515l-15.5590515 0z" fill-rule="evenodd"/><path fill="#000000" fill-opacity="0.0" d="m117.03412 122.80446l15.5590515 0l0 15.5590515l-15.5590515 0z" fill-rule="evenodd"/><path stroke="#ffffff" stroke-width="1.0" stroke-linejoin="round" stroke-linecap="butt" d="m117.03412 122.80446l15.5590515 0l0 15.5590515l-15.5590515 0z" fill-rule="evenodd"/><path fill="#000000" fill-opacity="0.0" d="m132.59317 122.80446l15.559067 0l0 15.5590515l-15.559067 0z" fill-rule="evenodd"/><path stroke="#ffffff" stroke-width="1.0" stroke-linejoin="round" stroke-linecap="butt" d="m132.59317 122.80446l15.559067 0l0 15.5590515l-15.559067 0z" fill-rule="evenodd"/><path fill="#000000" fill-opacity="0.0" d="m148.15224 122.80446l15.5590515 0l0 15.5590515l-15.5590515 0z" fill-rule="evenodd"/><path stroke="#ffffff" stroke-width="1.0" stroke-linejoin="round" stroke-linecap="butt" d="m148.15224 122.80446l15.5590515 0l0 15.5590515l-15.5590515 0z" fill-rule="evenodd"/><path fill="#000000" fill-opacity="0.0" d="m163.71129 122.80446l15.5590515 0l0 15.5590515l-15.5590515 0z" fill-rule="evenodd"/><path stroke="#ffffff" stroke-width="1.0" stroke-linejoin="round" stroke-linecap="butt" d="m163.71129 122.80446l15.5590515 0l0 15.5590515l-15.5590515 0z" fill-rule="evenodd"/><path fill="#000000" fill-opacity="0.0" d="m179.27034 122.80446l15.5590515 0l0 15.5590515l-15.5590515 0z" fill-rule="evenodd"/><path stroke="#ffffff" stroke-width="1.0" stroke-linejoin="round" stroke-linecap="butt" d="m179.27034 122.80446l15.5590515 0l0 15.5590515l-15.5590515 0z" fill-rule="evenodd"/><path fill="#000000" fill-opacity="0.0" d="m194.82939 122.80446l15.559067 0l0 15.5590515l-15.559067 0z" fill-rule="evenodd"/><path stroke="#ffffff" stroke-width="1.0" stroke-linejoin="round" stroke-linecap="butt" d="m194.82939 122.80446l15.559067 0l0 15.5590515l-15.559067 0z" fill-rule="evenodd"/><path fill="#000000" fill-opacity="0.0" d="m210.38846 122.80446l15.5590515 0l0 15.5590515l-15.5590515 0z" fill-rule="evenodd"/><path stroke="#ffffff" stroke-width="1.0" stroke-linejoin="round" stroke-linecap="butt" d="m210.38846 122.80446l15.5590515 0l0 15.5590515l-15.5590515 0z" fill-rule="evenodd"/><path fill="#000000" fill-opacity="0.0" d="m225.94751 122.80446l15.5590515 0l0 15.5590515l-15.5590515 0z" fill-rule="evenodd"/><path stroke="#ffffff" stroke-width="1.0" stroke-linejoin="round" stroke-linecap="butt" d="m225.94751 122.80446l15.5590515 0l0 15.5590515l-15.5590515 0z" fill-rule="evenodd"/><path fill="#000000" fill-opacity="0.0" d="m241.50656 122.80446l15.5590515 0l0 15.5590515l-15.5590515 0z" fill-rule="evenodd"/><path stroke="#ffffff" stroke-width="1.0" stroke-linejoin="round" stroke-linecap="butt" d="m241.50656 122.80446l15.5590515 0l0 15.5590515l-15.5590515 0z" fill-rule="evenodd"/><path fill="#000000" fill-opacity="0.0" d="m257.0656 122.80446l15.5590515 0l0 15.5590515l-15.5590515 0z" fill-rule="evenodd"/><path stroke="#ffffff" stroke-width="1.0" stroke-linejoin="round" stroke-linecap="butt" d="m257.0656 122.80446l15.5590515 0l0 15.5590515l-15.5590515 0z" fill-rule="evenodd"/><path fill="#000000" fill-opacity="0.0" d="m272.62466 122.80446l15.5590515 0l0 15.5590515l-15.5590515 0z" fill-rule="evenodd"/><path stroke="#ffffff" stroke-width="1.0" stroke-linejoin="round" stroke-linecap="butt" d="m272.62466 122.80446l15.5590515 0l0 15.5590515l-15.5590515 0z" fill-rule="evenodd"/><path fill="#000000" fill-opacity="0.0" d="m288.18372 122.80446l15.5590515 0l0 15.5590515l-15.5590515 0z" fill-rule="evenodd"/><path stroke="#ffffff" stroke-width="1.0" stroke-linejoin="round" stroke-linecap="butt" d="m288.18372 122.80446l15.5590515 0l0 15.5590515l-15.5590515 0z" fill-rule="evenodd"/><path fill="#000000" fill-opacity="0.0" d="m303.74277 122.80446l15.559082 0l0 15.5590515l-15.559082 0z" fill-rule="evenodd"/><path stroke="#ffffff" stroke-width="1.0" stroke-linejoin="round" stroke-linecap="butt" d="m303.74277 122.80446l15.559082 0l0 15.5590515l-15.559082 0z" fill-rule="evenodd"/><path fill="#000000" fill-opacity="0.0" d="m319.30185 122.80446l15.5590515 0l0 15.5590515l-15.5590515 0z" fill-rule="evenodd"/><path stroke="#ffffff" stroke-width="1.0" stroke-linejoin="round" stroke-linecap="butt" d="m319.30185 122.80446l15.5590515 0l0 15.5590515l-15.5590515 0z" fill-rule="evenodd"/><path fill="#000000" fill-opacity="0.0" d="m334.8609 122.80446l15.5590515 0l0 15.5590515l-15.5590515 0z" fill-rule="evenodd"/><path stroke="#ffffff" stroke-width="1.0" stroke-linejoin="round" stroke-linecap="butt" d="m334.8609 122.80446l15.5590515 0l0 15.5590515l-15.5590515 0z" fill-rule="evenodd"/><path fill="#000000" fill-opacity="0.0" d="m350.41995 122.80446l15.5590515 0l0 15.5590515l-15.5590515 0z" fill-rule="evenodd"/><path stroke="#ffffff" stroke-width="1.0" stroke-linejoin="round" stroke-linecap="butt" d="m350.41995 122.80446l15.5590515 0l0 15.5590515l-15.5590515 0z" fill-rule="evenodd"/><path fill="#000000" fill-opacity="0.0" d="m365.979 122.80446l15.5590515 0l0 15.5590515l-15.5590515 0z" fill-rule="evenodd"/><path stroke="#ffffff" stroke-width="1.0" stroke-linejoin="round" stroke-linecap="butt" d="m365.979 122.80446l15.5590515 0l0 15.5590515l-15.5590515 0z" fill-rule="evenodd"/><path fill="#000000" fill-opacity="0.0" d="m381.53806 122.80446l15.5590515 0l0 15.5590515l-15.5590515 0z" fill-rule="evenodd"/><path stroke="#ffffff" stroke-width="1.0" stroke-linejoin="round" stroke-linecap="butt" d="m381.53806 122.80446l15.5590515 0l0 15.5590515l-15.5590515 0z" fill-rule="evenodd"/><path fill="#000000" fill-opacity="0.0" d="m397.0971 122.80446l15.5590515 0l0 15.5590515l-15.5590515 0z" fill-rule="evenodd"/><path stroke="#ffffff" stroke-width="1.0" stroke-linejoin="round" stroke-linecap="butt" d="m397.0971 122.80446l15.5590515 0l0 15.5590515l-15.5590515 0z" fill-rule="evenodd"/><path fill="#000000" fill-opacity="0.0" d="m412.65616 122.80446l15.5590515 0l0 15.5590515l-15.5590515 0z" fill-rule="evenodd"/><path stroke="#ffffff" stroke-width="1.0" stroke-linejoin="round" stroke-linecap="butt" d="m412.65616 122.80446l15.5590515 0l0 15.5590515l-15.5590515 0z" fill-rule="evenodd"/><path fill="#000000" fill-opacity="0.0" d="m428.2152 122.80446l15.559082 0l0 15.5590515l-15.559082 0z" fill-rule="evenodd"/><path stroke="#ffffff" stroke-width="1.0" stroke-linejoin="round" stroke-linecap="butt" d="m428.2152 122.80446l15.559082 0l0 15.5590515l-15.559082 0z" fill-rule="evenodd"/><path fill="#000000" fill-opacity="0.0" d="m443.7743 122.80446l15.5590515 0l0 15.5590515l-15.5590515 0z" fill-rule="evenodd"/><path stroke="#ffffff" stroke-width="1.0" stroke-linejoin="round" stroke-linecap="butt" d="m443.7743 122.80446l15.5590515 0l0 15.5590515l-15.5590515 0z" fill-rule="evenodd"/><path fill="#000000" fill-opacity="0.0" d="m459.33334 122.80446l15.5590515 0l0 15.5590515l-15.5590515 0z" fill-rule="evenodd"/><path stroke="#ffffff" stroke-width="1.0" stroke-linejoin="round" stroke-linecap="butt" d="m459.33334 122.80446l15.5590515 0l0 15.5590515l-15.5590515 0z" fill-rule="evenodd"/><path fill="#000000" fill-opacity="0.0" d="m474.8924 122.80446l15.5590515 0l0 15.5590515l-15.5590515 0z" fill-rule="evenodd"/><path stroke="#ffffff" stroke-width="1.0" stroke-linejoin="round" stroke-linecap="butt" d="m474.8924 122.80446l15.5590515 0l0 15.5590515l-15.5590515 0z" fill-rule="evenodd"/><path fill="#000000" fill-opacity="0.0" d="m490.45145 122.80446l15.5590515 0l0 15.5590515l-15.5590515 0z" fill-rule="evenodd"/><path stroke="#ffffff" stroke-width="1.0" stroke-linejoin="round" stroke-linecap="butt" d="m490.45145 122.80446l15.5590515 0l0 15.5590515l-15.5590515 0z" fill-rule="evenodd"/><path fill="#000000" fill-opacity="0.0" d="m506.0105 122.80446l15.559082 0l0 15.5590515l-15.559082 0z" fill-rule="evenodd"/><path stroke="#ffffff" stroke-width="1.0" stroke-linejoin="round" stroke-linecap="butt" d="m506.0105 122.80446l15.559082 0l0 15.5590515l-15.559082 0z" fill-rule="evenodd"/><path fill="#000000" fill-opacity="0.0" d="m521.5696 122.80446l15.559021 0l0 15.5590515l-15.559021 0z" fill-rule="evenodd"/><path stroke="#ffffff" stroke-width="1.0" stroke-linejoin="round" stroke-linecap="butt" d="m521.5696 122.80446l15.559021 0l0 15.5590515l-15.559021 0z" fill-rule="evenodd"/><path fill="#000000" fill-opacity="0.0" d="m537.1286 122.80446l15.559082 0l0 15.5590515l-15.559082 0z" fill-rule="evenodd"/><path stroke="#ffffff" stroke-width="1.0" stroke-linejoin="round" stroke-linecap="butt" d="m537.1286 122.80446l15.559082 0l0 15.5590515l-15.559082 0z" fill-rule="evenodd"/><path fill="#000000" fill-opacity="0.0" d="m552.6877 122.80446l15.559021 0l0 15.5590515l-15.559021 0z" fill-rule="evenodd"/><path stroke="#ffffff" stroke-width="1.0" stroke-linejoin="round" stroke-linecap="butt" d="m552.6877 122.80446l15.559021 0l0 15.5590515l-15.559021 0z" fill-rule="evenodd"/><path fill="#000000" fill-opacity="0.0" d="m568.2467 122.80446l15.559082 0l0 15.5590515l-15.559082 0z" fill-rule="evenodd"/><path stroke="#ffffff" stroke-width="1.0" stroke-linejoin="round" stroke-linecap="butt" d="m568.2467 122.80446l15.559082 0l0 15.5590515l-15.559082 0z" fill-rule="evenodd"/><path fill="#000000" fill-opacity="0.0" d="m583.8058 122.80446l15.559021 0l0 15.5590515l-15.559021 0z" fill-rule="evenodd"/><path stroke="#ffffff" stroke-width="1.0" stroke-linejoin="round" stroke-linecap="butt" d="m583.8058 122.80446l15.559021 0l0 15.5590515l-15.559021 0z" fill-rule="evenodd"/><path fill="#000000" fill-opacity="0.0" d="m599.3648 122.80446l15.559082 0l0 15.5590515l-15.559082 0z" fill-rule="evenodd"/><path stroke="#ffffff" stroke-width="1.0" stroke-linejoin="round" stroke-linecap="butt" d="m599.3648 122.80446l15.559082 0l0 15.5590515l-15.559082 0z" fill-rule="evenodd"/><path fill="#000000" fill-opacity="0.0" d="m117.03412 155.62073l15.5590515 0l0 15.559067l-15.5590515 0z" fill-rule="evenodd"/><path stroke="#ffffff" stroke-width="1.0" stroke-linejoin="round" stroke-linecap="butt" d="m117.03412 155.62073l15.5590515 0l0 15.559067l-15.5590515 0z" fill-rule="evenodd"/><path fill="#000000" fill-opacity="0.0" d="m132.59317 155.62073l15.559067 0l0 15.559067l-15.559067 0z" fill-rule="evenodd"/><path stroke="#ffffff" stroke-width="1.0" stroke-linejoin="round" stroke-linecap="butt" d="m132.59317 155.62073l15.559067 0l0 15.559067l-15.559067 0z" fill-rule="evenodd"/><path fill="#000000" fill-opacity="0.0" d="m148.15224 155.62073l15.5590515 0l0 15.559067l-15.5590515 0z" fill-rule="evenodd"/><path stroke="#ffffff" stroke-width="1.0" stroke-linejoin="round" stroke-linecap="butt" d="m148.15224 155.62073l15.5590515 0l0 15.559067l-15.5590515 0z" fill-rule="evenodd"/><path fill="#000000" fill-opacity="0.0" d="m163.71129 155.62073l15.5590515 0l0 15.559067l-15.5590515 0z" fill-rule="evenodd"/><path stroke="#ffffff" stroke-width="1.0" stroke-linejoin="round" stroke-linecap="butt" d="m163.71129 155.62073l15.5590515 0l0 15.559067l-15.5590515 0z" fill-rule="evenodd"/><path fill="#000000" fill-opacity="0.0" d="m179.27034 155.62073l15.5590515 0l0 15.559067l-15.5590515 0z" fill-rule="evenodd"/><path stroke="#ffffff" stroke-width="1.0" stroke-linejoin="round" stroke-linecap="butt" d="m179.27034 155.62073l15.5590515 0l0 15.559067l-15.5590515 0z" fill-rule="evenodd"/><path fill="#000000" fill-opacity="0.0" d="m194.82939 155.62073l15.559067 0l0 15.559067l-15.559067 0z" fill-rule="evenodd"/><path stroke="#ffffff" stroke-width="1.0" stroke-linejoin="round" stroke-linecap="butt" d="m194.82939 155.62073l15.559067 0l0 15.559067l-15.559067 0z" fill-rule="evenodd"/><path fill="#000000" fill-opacity="0.0" d="m210.38846 155.62073l15.5590515 0l0 15.559067l-15.5590515 0z" fill-rule="evenodd"/><path stroke="#ffffff" stroke-width="1.0" stroke-linejoin="round" stroke-linecap="butt" d="m210.38846 155.62073l15.5590515 0l0 15.559067l-15.5590515 0z" fill-rule="evenodd"/><path fill="#000000" fill-opacity="0.0" d="m225.94751 155.62073l15.5590515 0l0 15.559067l-15.5590515 0z" fill-rule="evenodd"/><path stroke="#ffffff" stroke-width="1.0" stroke-linejoin="round" stroke-linecap="butt" d="m225.94751 155.62073l15.5590515 0l0 15.559067l-15.5590515 0z" fill-rule="evenodd"/><path fill="#000000" fill-opacity="0.0" d="m241.50656 155.62073l15.5590515 0l0 15.559067l-15.5590515 0z" fill-rule="evenodd"/><path stroke="#ffffff" stroke-width="1.0" stroke-linejoin="round" stroke-linecap="butt" d="m241.50656 155.62073l15.5590515 0l0 15.559067l-15.5590515 0z" fill-rule="evenodd"/><path fill="#000000" fill-opacity="0.0" d="m257.0656 155.62073l15.5590515 0l0 15.559067l-15.5590515 0z" fill-rule="evenodd"/><path stroke="#ffffff" stroke-width="1.0" stroke-linejoin="round" stroke-linecap="butt" d="m257.0656 155.62073l15.5590515 0l0 15.559067l-15.5590515 0z" fill-rule="evenodd"/><path fill="#000000" fill-opacity="0.0" d="m272.62466 155.62073l15.5590515 0l0 15.559067l-15.5590515 0z" fill-rule="evenodd"/><path stroke="#ffffff" stroke-width="1.0" stroke-linejoin="round" stroke-linecap="butt" d="m272.62466 155.62073l15.5590515 0l0 15.559067l-15.5590515 0z" fill-rule="evenodd"/><path fill="#000000" fill-opacity="0.0" d="m288.18372 155.62073l15.5590515 0l0 15.559067l-15.5590515 0z" fill-rule="evenodd"/><path stroke="#ffffff" stroke-width="1.0" stroke-linejoin="round" stroke-linecap="butt" d="m288.18372 155.62073l15.5590515 0l0 15.559067l-15.5590515 0z" fill-rule="evenodd"/><path fill="#000000" fill-opacity="0.0" d="m303.74277 155.62073l15.559082 0l0 15.559067l-15.559082 0z" fill-rule="evenodd"/><path stroke="#ffffff" stroke-width="1.0" stroke-linejoin="round" stroke-linecap="butt" d="m303.74277 155.62073l15.559082 0l0 15.559067l-15.559082 0z" fill-rule="evenodd"/><path fill="#000000" fill-opacity="0.0" d="m319.30185 155.62073l15.5590515 0l0 15.559067l-15.5590515 0z" fill-rule="evenodd"/><path stroke="#ffffff" stroke-width="1.0" stroke-linejoin="round" stroke-linecap="butt" d="m319.30185 155.62073l15.5590515 0l0 15.559067l-15.5590515 0z" fill-rule="evenodd"/><path fill="#000000" fill-opacity="0.0" d="m334.8609 155.62073l15.5590515 0l0 15.559067l-15.5590515 0z" fill-rule="evenodd"/><path stroke="#ffffff" stroke-width="1.0" stroke-linejoin="round" stroke-linecap="butt" d="m334.8609 155.62073l15.5590515 0l0 15.559067l-15.5590515 0z" fill-rule="evenodd"/><path fill="#000000" fill-opacity="0.0" d="m350.41995 155.62073l15.5590515 0l0 15.559067l-15.5590515 0z" fill-rule="evenodd"/><path stroke="#ffffff" stroke-width="1.0" stroke-linejoin="round" stroke-linecap="butt" d="m350.41995 155.62073l15.5590515 0l0 15.559067l-15.5590515 0z" fill-rule="evenodd"/><path fill="#000000" fill-opacity="0.0" d="m365.979 155.62073l15.5590515 0l0 15.559067l-15.5590515 0z" fill-rule="evenodd"/><path stroke="#ffffff" stroke-width="1.0" stroke-linejoin="round" stroke-linecap="butt" d="m365.979 155.62073l15.5590515 0l0 15.559067l-15.5590515 0z" fill-rule="evenodd"/><path fill="#000000" fill-opacity="0.0" d="m381.53806 155.62073l15.5590515 0l0 15.559067l-15.5590515 0z" fill-rule="evenodd"/><path stroke="#ffffff" stroke-width="1.0" stroke-linejoin="round" stroke-linecap="butt" d="m381.53806 155.62073l15.5590515 0l0 15.559067l-15.5590515 0z" fill-rule="evenodd"/><path fill="#000000" fill-opacity="0.0" d="m397.0971 155.62073l15.5590515 0l0 15.559067l-15.5590515 0z" fill-rule="evenodd"/><path stroke="#ffffff" stroke-width="1.0" stroke-linejoin="round" stroke-linecap="butt" d="m397.0971 155.62073l15.5590515 0l0 15.559067l-15.5590515 0z" fill-rule="evenodd"/><path fill="#000000" fill-opacity="0.0" d="m412.65616 155.62073l15.5590515 0l0 15.559067l-15.5590515 0z" fill-rule="evenodd"/><path stroke="#ffffff" stroke-width="1.0" stroke-linejoin="round" stroke-linecap="butt" d="m412.65616 155.62073l15.5590515 0l0 15.559067l-15.5590515 0z" fill-rule="evenodd"/><path fill="#000000" fill-opacity="0.0" d="m428.2152 155.62073l15.559082 0l0 15.559067l-15.559082 0z" fill-rule="evenodd"/><path stroke="#ffffff" stroke-width="1.0" stroke-linejoin="round" stroke-linecap="butt" d="m428.2152 155.62073l15.559082 0l0 15.559067l-15.559082 0z" fill-rule="evenodd"/><path fill="#000000" fill-opacity="0.0" d="m443.7743 155.62073l15.5590515 0l0 15.559067l-15.5590515 0z" fill-rule="evenodd"/><path stroke="#ffffff" stroke-width="1.0" stroke-linejoin="round" stroke-linecap="butt" d="m443.7743 155.62073l15.5590515 0l0 15.559067l-15.5590515 0z" fill-rule="evenodd"/><path fill="#000000" fill-opacity="0.0" d="m459.33334 155.62073l15.5590515 0l0 15.559067l-15.5590515 0z" fill-rule="evenodd"/><path stroke="#ffffff" stroke-width="1.0" stroke-linejoin="round" stroke-linecap="butt" d="m459.33334 155.62073l15.5590515 0l0 15.559067l-15.5590515 0z" fill-rule="evenodd"/><path fill="#000000" fill-opacity="0.0" d="m474.8924 155.62073l15.5590515 0l0 15.559067l-15.5590515 0z" fill-rule="evenodd"/><path stroke="#ffffff" stroke-width="1.0" stroke-linejoin="round" stroke-linecap="butt" d="m474.8924 155.62073l15.5590515 0l0 15.559067l-15.5590515 0z" fill-rule="evenodd"/><path fill="#000000" fill-opacity="0.0" d="m490.45145 155.62073l15.5590515 0l0 15.559067l-15.5590515 0z" fill-rule="evenodd"/><path stroke="#ffffff" stroke-width="1.0" stroke-linejoin="round" stroke-linecap="butt" d="m490.45145 155.62073l15.5590515 0l0 15.559067l-15.5590515 0z" fill-rule="evenodd"/><path fill="#000000" fill-opacity="0.0" d="m506.0105 155.62073l15.559082 0l0 15.559067l-15.559082 0z" fill-rule="evenodd"/><path stroke="#ffffff" stroke-width="1.0" stroke-linejoin="round" stroke-linecap="butt" d="m506.0105 155.62073l15.559082 0l0 15.559067l-15.559082 0z" fill-rule="evenodd"/><path fill="#000000" fill-opacity="0.0" d="m117.03412 188.43701l15.5590515 0l0 15.5590515l-15.5590515 0z" fill-rule="evenodd"/><path stroke="#ffffff" stroke-width="1.0" stroke-linejoin="round" stroke-linecap="butt" d="m117.03412 188.43701l15.5590515 0l0 15.5590515l-15.5590515 0z" fill-rule="evenodd"/><path fill="#000000" fill-opacity="0.0" d="m132.59317 188.43701l15.559067 0l0 15.5590515l-15.559067 0z" fill-rule="evenodd"/><path stroke="#ffffff" stroke-width="1.0" stroke-linejoin="round" stroke-linecap="butt" d="m132.59317 188.43701l15.559067 0l0 15.5590515l-15.559067 0z" fill-rule="evenodd"/><path fill="#000000" fill-opacity="0.0" d="m148.15224 188.43701l15.5590515 0l0 15.5590515l-15.5590515 0z" fill-rule="evenodd"/><path stroke="#ffffff" stroke-width="1.0" stroke-linejoin="round" stroke-linecap="butt" d="m148.15224 188.43701l15.5590515 0l0 15.5590515l-15.5590515 0z" fill-rule="evenodd"/><path fill="#000000" fill-opacity="0.0" d="m163.71129 188.43701l15.5590515 0l0 15.5590515l-15.5590515 0z" fill-rule="evenodd"/><path stroke="#ffffff" stroke-width="1.0" stroke-linejoin="round" stroke-linecap="butt" d="m163.71129 188.43701l15.5590515 0l0 15.5590515l-15.5590515 0z" fill-rule="evenodd"/><path fill="#000000" fill-opacity="0.0" d="m179.27034 188.43701l15.5590515 0l0 15.5590515l-15.5590515 0z" fill-rule="evenodd"/><path stroke="#ffffff" stroke-width="1.0" stroke-linejoin="round" stroke-linecap="butt" d="m179.27034 188.43701l15.5590515 0l0 15.5590515l-15.5590515 0z" fill-rule="evenodd"/><path fill="#000000" fill-opacity="0.0" d="m194.82939 188.43701l15.559067 0l0 15.5590515l-15.559067 0z" fill-rule="evenodd"/><path stroke="#ffffff" stroke-width="1.0" stroke-linejoin="round" stroke-linecap="butt" d="m194.82939 188.43701l15.559067 0l0 15.5590515l-15.559067 0z" fill-rule="evenodd"/><path fill="#000000" fill-opacity="0.0" d="m210.38846 188.43701l15.5590515 0l0 15.5590515l-15.5590515 0z" fill-rule="evenodd"/><path stroke="#ffffff" stroke-width="1.0" stroke-linejoin="round" stroke-linecap="butt" d="m210.38846 188.43701l15.5590515 0l0 15.5590515l-15.5590515 0z" fill-rule="evenodd"/><path fill="#000000" fill-opacity="0.0" d="m225.94751 188.43701l15.5590515 0l0 15.5590515l-15.5590515 0z" fill-rule="evenodd"/><path stroke="#ffffff" stroke-width="1.0" stroke-linejoin="round" stroke-linecap="butt" d="m225.94751 188.43701l15.5590515 0l0 15.5590515l-15.5590515 0z" fill-rule="evenodd"/><path fill="#000000" fill-opacity="0.0" d="m241.50656 188.43701l15.5590515 0l0 15.5590515l-15.5590515 0z" fill-rule="evenodd"/><path stroke="#ffffff" stroke-width="1.0" stroke-linejoin="round" stroke-linecap="butt" d="m241.50656 188.43701l15.5590515 0l0 15.5590515l-15.5590515 0z" fill-rule="evenodd"/><path fill="#000000" fill-opacity="0.0" d="m257.0656 188.43701l15.5590515 0l0 15.5590515l-15.5590515 0z" fill-rule="evenodd"/><path stroke="#ffffff" stroke-width="1.0" stroke-linejoin="round" stroke-linecap="butt" d="m257.0656 188.43701l15.5590515 0l0 15.5590515l-15.5590515 0z" fill-rule="evenodd"/><path fill="#000000" fill-opacity="0.0" d="m272.62466 188.43701l15.5590515 0l0 15.5590515l-15.5590515 0z" fill-rule="evenodd"/><path stroke="#ffffff" stroke-width="1.0" stroke-linejoin="round" stroke-linecap="butt" d="m272.62466 188.43701l15.5590515 0l0 15.5590515l-15.5590515 0z" fill-rule="evenodd"/><path fill="#000000" fill-opacity="0.0" d="m288.18372 188.43701l15.5590515 0l0 15.5590515l-15.5590515 0z" fill-rule="evenodd"/><path stroke="#ffffff" stroke-width="1.0" stroke-linejoin="round" stroke-linecap="butt" d="m288.18372 188.43701l15.5590515 0l0 15.5590515l-15.5590515 0z" fill-rule="evenodd"/><path fill="#000000" fill-opacity="0.0" d="m303.74277 188.43701l15.559082 0l0 15.5590515l-15.559082 0z" fill-rule="evenodd"/><path stroke="#ffffff" stroke-width="1.0" stroke-linejoin="round" stroke-linecap="butt" d="m303.74277 188.43701l15.559082 0l0 15.5590515l-15.559082 0z" fill-rule="evenodd"/><path fill="#000000" fill-opacity="0.0" d="m319.30185 188.43701l15.5590515 0l0 15.5590515l-15.5590515 0z" fill-rule="evenodd"/><path stroke="#ffffff" stroke-width="1.0" stroke-linejoin="round" stroke-linecap="butt" d="m319.30185 188.43701l15.5590515 0l0 15.5590515l-15.5590515 0z" fill-rule="evenodd"/><path fill="#000000" fill-opacity="0.0" d="m334.8609 188.43701l15.5590515 0l0 15.5590515l-15.5590515 0z" fill-rule="evenodd"/><path stroke="#ffffff" stroke-width="1.0" stroke-linejoin="round" stroke-linecap="butt" d="m334.8609 188.43701l15.5590515 0l0 15.5590515l-15.5590515 0z" fill-rule="evenodd"/><path fill="#000000" fill-opacity="0.0" d="m350.41995 188.43701l15.5590515 0l0 15.5590515l-15.5590515 0z" fill-rule="evenodd"/><path stroke="#ffffff" stroke-width="1.0" stroke-linejoin="round" stroke-linecap="butt" d="m350.41995 188.43701l15.5590515 0l0 15.5590515l-15.5590515 0z" fill-rule="evenodd"/><path fill="#000000" fill-opacity="0.0" d="m365.979 188.43701l15.5590515 0l0 15.5590515l-15.5590515 0z" fill-rule="evenodd"/><path stroke="#ffffff" stroke-width="1.0" stroke-linejoin="round" stroke-linecap="butt" d="m365.979 188.43701l15.5590515 0l0 15.5590515l-15.5590515 0z" fill-rule="evenodd"/><path fill="#000000" fill-opacity="0.0" d="m381.53806 188.43701l15.5590515 0l0 15.5590515l-15.5590515 0z" fill-rule="evenodd"/><path stroke="#ffffff" stroke-width="1.0" stroke-linejoin="round" stroke-linecap="butt" d="m381.53806 188.43701l15.5590515 0l0 15.5590515l-15.5590515 0z" fill-rule="evenodd"/><path fill="#000000" fill-opacity="0.0" d="m397.0971 188.43701l15.5590515 0l0 15.5590515l-15.5590515 0z" fill-rule="evenodd"/><path stroke="#ffffff" stroke-width="1.0" stroke-linejoin="round" stroke-linecap="butt" d="m397.0971 188.43701l15.5590515 0l0 15.5590515l-15.5590515 0z" fill-rule="evenodd"/><path fill="#000000" fill-opacity="0.0" d="m412.65616 188.43701l15.5590515 0l0 15.5590515l-15.5590515 0z" fill-rule="evenodd"/><path stroke="#ffffff" stroke-width="1.0" stroke-linejoin="round" stroke-linecap="butt" d="m412.65616 188.43701l15.5590515 0l0 15.5590515l-15.5590515 0z" fill-rule="evenodd"/><path fill="#000000" fill-opacity="0.0" d="m428.2152 188.43701l15.559082 0l0 15.5590515l-15.559082 0z" fill-rule="evenodd"/><path stroke="#ffffff" stroke-width="1.0" stroke-linejoin="round" stroke-linecap="butt" d="m428.2152 188.43701l15.559082 0l0 15.5590515l-15.559082 0z" fill-rule="evenodd"/><path fill="#000000" fill-opacity="0.0" d="m443.7743 188.43701l15.5590515 0l0 15.5590515l-15.5590515 0z" fill-rule="evenodd"/><path stroke="#ffffff" stroke-width="1.0" stroke-linejoin="round" stroke-linecap="butt" d="m443.7743 188.43701l15.5590515 0l0 15.5590515l-15.5590515 0z" fill-rule="evenodd"/><path fill="#000000" fill-opacity="0.0" d="m459.33334 188.43701l15.5590515 0l0 15.5590515l-15.5590515 0z" fill-rule="evenodd"/><path stroke="#ffffff" stroke-width="1.0" stroke-linejoin="round" stroke-linecap="butt" d="m459.33334 188.43701l15.5590515 0l0 15.5590515l-15.5590515 0z" fill-rule="evenodd"/><path fill="#000000" fill-opacity="0.0" d="m474.8924 188.43701l15.5590515 0l0 15.5590515l-15.5590515 0z" fill-rule="evenodd"/><path stroke="#ffffff" stroke-width="1.0" stroke-linejoin="round" stroke-linecap="butt" d="m474.8924 188.43701l15.5590515 0l0 15.5590515l-15.5590515 0z" fill-rule="evenodd"/><path fill="#000000" fill-opacity="0.0" d="m490.45145 188.43701l15.5590515 0l0 15.5590515l-15.5590515 0z" fill-rule="evenodd"/><path stroke="#ffffff" stroke-width="1.0" stroke-linejoin="round" stroke-linecap="butt" d="m490.45145 188.43701l15.5590515 0l0 15.5590515l-15.5590515 0z" fill-rule="evenodd"/><path fill="#000000" fill-opacity="0.0" d="m506.0105 188.43701l15.559082 0l0 15.5590515l-15.559082 0z" fill-rule="evenodd"/><path stroke="#ffffff" stroke-width="1.0" stroke-linejoin="round" stroke-linecap="butt" d="m506.0105 188.43701l15.559082 0l0 15.5590515l-15.559082 0z" fill-rule="evenodd"/><path fill="#000000" fill-opacity="0.0" d="m117.580055 221.25328l15.559059 0l0 15.5590515l-15.559059 0z" fill-rule="evenodd"/><path stroke="#ffffff" stroke-width="1.0" stroke-linejoin="round" stroke-linecap="butt" d="m117.580055 221.25328l15.559059 0l0 15.5590515l-15.559059 0z" fill-rule="evenodd"/><path fill="#000000" fill-opacity="0.0" d="m133.13911 221.25328l15.5590515 0l0 15.5590515l-15.5590515 0z" fill-rule="evenodd"/><path stroke="#ffffff" stroke-width="1.0" stroke-linejoin="round" stroke-linecap="butt" d="m133.13911 221.25328l15.5590515 0l0 15.5590515l-15.5590515 0z" fill-rule="evenodd"/><path fill="#000000" fill-opacity="0.0" d="m148.69817 221.25328l15.5590515 0l0 15.5590515l-15.5590515 0z" fill-rule="evenodd"/><path stroke="#ffffff" stroke-width="1.0" stroke-linejoin="round" stroke-linecap="butt" d="m148.69817 221.25328l15.5590515 0l0 15.5590515l-15.5590515 0z" fill-rule="evenodd"/><path fill="#000000" fill-opacity="0.0" d="m164.25722 221.25328l15.5590515 0l0 15.5590515l-15.5590515 0z" fill-rule="evenodd"/><path stroke="#ffffff" stroke-width="1.0" stroke-linejoin="round" stroke-linecap="butt" d="m164.25722 221.25328l15.5590515 0l0 15.5590515l-15.5590515 0z" fill-rule="evenodd"/><path fill="#000000" fill-opacity="0.0" d="m179.81627 221.25328l15.559067 0l0 15.5590515l-15.559067 0z" fill-rule="evenodd"/><path stroke="#ffffff" stroke-width="1.0" stroke-linejoin="round" stroke-linecap="butt" d="m179.81627 221.25328l15.559067 0l0 15.5590515l-15.559067 0z" fill-rule="evenodd"/><path fill="#000000" fill-opacity="0.0" d="m195.37534 221.25328l15.5590515 0l0 15.5590515l-15.5590515 0z" fill-rule="evenodd"/><path stroke="#ffffff" stroke-width="1.0" stroke-linejoin="round" stroke-linecap="butt" d="m195.37534 221.25328l15.5590515 0l0 15.5590515l-15.5590515 0z" fill-rule="evenodd"/><path fill="#000000" fill-opacity="0.0" d="m210.93439 221.25328l15.5590515 0l0 15.5590515l-15.5590515 0z" fill-rule="evenodd"/><path stroke="#ffffff" stroke-width="1.0" stroke-linejoin="round" stroke-linecap="butt" d="m210.93439 221.25328l15.5590515 0l0 15.5590515l-15.5590515 0z" fill-rule="evenodd"/><path fill="#000000" fill-opacity="0.0" d="m226.49344 221.25328l15.5590515 0l0 15.5590515l-15.5590515 0z" fill-rule="evenodd"/><path stroke="#ffffff" stroke-width="1.0" stroke-linejoin="round" stroke-linecap="butt" d="m226.49344 221.25328l15.5590515 0l0 15.5590515l-15.5590515 0z" fill-rule="evenodd"/><path fill="#000000" fill-opacity="0.0" d="m242.05249 221.25328l15.5590515 0l0 15.5590515l-15.5590515 0z" fill-rule="evenodd"/><path stroke="#ffffff" stroke-width="1.0" stroke-linejoin="round" stroke-linecap="butt" d="m242.05249 221.25328l15.5590515 0l0 15.5590515l-15.5590515 0z" fill-rule="evenodd"/><path fill="#000000" fill-opacity="0.0" d="m257.61154 221.25328l15.5590515 0l0 15.5590515l-15.5590515 0z" fill-rule="evenodd"/><path stroke="#ffffff" stroke-width="1.0" stroke-linejoin="round" stroke-linecap="butt" d="m257.61154 221.25328l15.5590515 0l0 15.5590515l-15.5590515 0z" fill-rule="evenodd"/><path fill="#000000" fill-opacity="0.0" d="m273.1706 221.25328l15.5590515 0l0 15.5590515l-15.5590515 0z" fill-rule="evenodd"/><path stroke="#ffffff" stroke-width="1.0" stroke-linejoin="round" stroke-linecap="butt" d="m273.1706 221.25328l15.5590515 0l0 15.5590515l-15.5590515 0z" fill-rule="evenodd"/><path fill="#000000" fill-opacity="0.0" d="m288.72964 221.25328l15.559082 0l0 15.5590515l-15.559082 0z" fill-rule="evenodd"/><path stroke="#ffffff" stroke-width="1.0" stroke-linejoin="round" stroke-linecap="butt" d="m288.72964 221.25328l15.559082 0l0 15.5590515l-15.559082 0z" fill-rule="evenodd"/><path fill="#000000" fill-opacity="0.0" d="m304.28873 221.25328l15.5590515 0l0 15.5590515l-15.5590515 0z" fill-rule="evenodd"/><path stroke="#ffffff" stroke-width="1.0" stroke-linejoin="round" stroke-linecap="butt" d="m304.28873 221.25328l15.5590515 0l0 15.5590515l-15.5590515 0z" fill-rule="evenodd"/><path fill="#000000" fill-opacity="0.0" d="m319.84778 221.25328l15.5590515 0l0 15.5590515l-15.5590515 0z" fill-rule="evenodd"/><path stroke="#ffffff" stroke-width="1.0" stroke-linejoin="round" stroke-linecap="butt" d="m319.84778 221.25328l15.5590515 0l0 15.5590515l-15.5590515 0z" fill-rule="evenodd"/><path fill="#000000" fill-opacity="0.0" d="m335.40683 221.25328l15.5590515 0l0 15.5590515l-15.5590515 0z" fill-rule="evenodd"/><path stroke="#ffffff" stroke-width="1.0" stroke-linejoin="round" stroke-linecap="butt" d="m335.40683 221.25328l15.5590515 0l0 15.5590515l-15.5590515 0z" fill-rule="evenodd"/><path fill="#000000" fill-opacity="0.0" d="m350.96588 221.25328l15.5590515 0l0 15.5590515l-15.5590515 0z" fill-rule="evenodd"/><path stroke="#ffffff" stroke-width="1.0" stroke-linejoin="round" stroke-linecap="butt" d="m350.96588 221.25328l15.5590515 0l0 15.5590515l-15.5590515 0z" fill-rule="evenodd"/><path fill="#000000" fill-opacity="0.0" d="m366.52493 221.25328l15.5590515 0l0 15.5590515l-15.5590515 0z" fill-rule="evenodd"/><path stroke="#ffffff" stroke-width="1.0" stroke-linejoin="round" stroke-linecap="butt" d="m366.52493 221.25328l15.5590515 0l0 15.5590515l-15.5590515 0z" fill-rule="evenodd"/><path fill="#000000" fill-opacity="0.0" d="m382.08398 221.25328l15.5590515 0l0 15.5590515l-15.5590515 0z" fill-rule="evenodd"/><path stroke="#ffffff" stroke-width="1.0" stroke-linejoin="round" stroke-linecap="butt" d="m382.08398 221.25328l15.5590515 0l0 15.5590515l-15.5590515 0z" fill-rule="evenodd"/><path fill="#000000" fill-opacity="0.0" d="m397.64304 221.25328l15.5590515 0l0 15.5590515l-15.5590515 0z" fill-rule="evenodd"/><path stroke="#ffffff" stroke-width="1.0" stroke-linejoin="round" stroke-linecap="butt" d="m397.64304 221.25328l15.5590515 0l0 15.5590515l-15.5590515 0z" fill-rule="evenodd"/><path fill="#000000" fill-opacity="0.0" d="m413.2021 221.25328l15.559082 0l0 15.5590515l-15.559082 0z" fill-rule="evenodd"/><path stroke="#ffffff" stroke-width="1.0" stroke-linejoin="round" stroke-linecap="butt" d="m413.2021 221.25328l15.559082 0l0 15.5590515l-15.559082 0z" fill-rule="evenodd"/><path fill="#000000" fill-opacity="0.0" d="m428.76117 221.25328l15.5590515 0l0 15.5590515l-15.5590515 0z" fill-rule="evenodd"/><path stroke="#ffffff" stroke-width="1.0" stroke-linejoin="round" stroke-linecap="butt" d="m428.76117 221.25328l15.5590515 0l0 15.5590515l-15.5590515 0z" fill-rule="evenodd"/><path fill="#000000" fill-opacity="0.0" d="m444.32022 221.25328l15.5590515 0l0 15.5590515l-15.5590515 0z" fill-rule="evenodd"/><path stroke="#ffffff" stroke-width="1.0" stroke-linejoin="round" stroke-linecap="butt" d="m444.32022 221.25328l15.5590515 0l0 15.5590515l-15.5590515 0z" fill-rule="evenodd"/><path fill="#000000" fill-opacity="0.0" d="m70.95538 57.171917l30.519684 0l0 15.559055l-30.519684 0z" fill-rule="evenodd"/><path fill="#ffffff" d="m99.03134 69.75144l-1.171875 0l0 -7.46875q-0.421875 0.40625 -1.109375 0.8125q-0.6875 0.40625 -1.234375 0.609375l0 -1.140625q0.984375 -0.453125 1.71875 -1.109375q0.734375 -0.671875 1.03125 -1.28125l0.765625 0l0 9.578125z" fill-rule="nonzero"/><path fill="#000000" fill-opacity="0.0" d="m70.95538 89.98819l30.519684 0l0 15.5590515l-30.519684 0z" fill-rule="evenodd"/><path fill="#ffffff" d="m100.76572 101.44272l0 1.125l-6.296875 0q-0.015625 -0.421875 0.140625 -0.8125q0.234375 -0.640625 0.765625 -1.265625q0.53125 -0.625 1.53125 -1.453125q1.5625 -1.265625 2.109375 -2.015625q0.546875 -0.75 0.546875 -1.40625q0 -0.703125 -0.5 -1.171875q-0.5 -0.484375 -1.296875 -0.484375q-0.859375 0 -1.375 0.515625q-0.5 0.5 -0.5 1.390625l-1.203125 -0.109375q0.125 -1.359375 0.921875 -2.0625q0.8125 -0.703125 2.171875 -0.703125q1.375 0 2.171875 0.765625q0.8125 0.75 0.8125 1.875q0 0.578125 -0.234375 1.140625q-0.234375 0.546875 -0.78125 1.15625q-0.546875 0.609375 -1.8125 1.671875q-1.046875 0.890625 -1.359375 1.21875q-0.296875 0.3125 -0.484375 0.625l4.671875 0z" fill-rule="nonzero"/><path fill="#000000" fill-opacity="0.0" d="m70.95538 122.80446l30.519684 0l0 15.5590515l-30.519684 0z" fill-rule="evenodd"/><path fill="#ffffff" d="m98.37509 135.38399l0 -2.28125l-4.140625 0l0 -1.078125l4.34375 -6.1875l0.96875 0l0 6.1875l1.28125 0l0 1.078125l-1.28125 0l0 2.28125l-1.171875 0zm0 -3.359375l0 -4.296875l-2.984375 4.296875l2.984375 0z" fill-rule="nonzero"/><path fill="#000000" fill-opacity="0.0" d="m70.95538 155.62073l30.519684 0l0 15.559067l-30.519684 0z" fill-rule="evenodd"/><path fill="#ffffff" d="m96.42197 163.02838q-0.734375 -0.265625 -1.09375 -0.765625q-0.34375 -0.5 -0.34375 -1.1875q0 -1.03125 0.75 -1.734375q0.75 -0.71875 1.984375 -0.71875q1.25 0 2.015625 0.734375q0.765625 0.71875 0.765625 1.75q0 0.671875 -0.359375 1.171875q-0.34375 0.484375 -1.046875 0.75q0.875 0.28125 1.328125 0.921875q0.46875 0.640625 0.46875 1.515625q0 1.234375 -0.875 2.0625q-0.859375 0.828125 -2.265625 0.828125q-1.421875 0 -2.28125 -0.828125q-0.859375 -0.84375 -0.859375 -2.09375q0 -0.921875 0.46875 -1.546875q0.46875 -0.640625 1.34375 -0.859375zm-0.234375 -1.984375q0 0.671875 0.4375 1.109375q0.4375 0.421875 1.125 0.421875q0.671875 0 1.109375 -0.421875q0.4375 -0.421875 0.4375 -1.046875q0 -0.640625 -0.453125 -1.078125q-0.4375 -0.4375 -1.109375 -0.4375q-0.671875 0 -1.109375 0.4375q-0.4375 0.421875 -0.4375 1.015625zm-0.375 4.40625q0 0.5 0.234375 0.96875q0.234375 0.46875 0.703125 0.734375q0.46875 0.25 1.015625 0.25q0.828125 0 1.375 -0.53125q0.546875 -0.546875 0.546875 -1.390625q0 -0.84375 -0.5625 -1.390625q-0.5625 -0.5625 -1.40625 -0.5625q-0.828125 0 -1.375 0.546875q-0.53125 0.546875 -0.53125 1.375z" fill-rule="nonzero"/><path fill="#000000" fill-opacity="0.0" d="m70.95538 188.43701l30.519684 0l0 15.5590515l-30.519684 0z" fill-rule="evenodd"/><path fill="#ffffff" d="m91.618866 201.01654l-1.171875 0l0 -7.46875q-0.421875 0.40625 -1.109375 0.8125q-0.6875 0.40625 -1.234375 0.609375l0 -1.140625q0.984375 -0.453125 1.71875 -1.109375q0.734375 -0.671875 1.03125 -1.28125l0.765625 0l0 9.578125zm9.068726 -7.203125l-1.15625 0.09375q-0.15625 -0.6875 -0.4375 -1.0q-0.484375 -0.5 -1.171875 -0.5q-0.5625 0 -0.984375 0.3125q-0.5625 0.390625 -0.890625 1.171875q-0.3125 0.765625 -0.3125 2.203125q0.421875 -0.640625 1.03125 -0.953125q0.609375 -0.3125 1.28125 -0.3125q1.171875 0 1.984375 0.859375q0.828125 0.859375 0.828125 2.234375q0 0.890625 -0.390625 1.671875q-0.375 0.765625 -1.0625 1.171875q-0.671875 0.40625 -1.53125 0.40625q-1.46875 0 -2.390625 -1.0625q-0.921875 -1.078125 -0.921875 -3.5625q0 -2.765625 1.015625 -4.015625q0.90625 -1.09375 2.40625 -1.09375q1.125 0 1.84375 0.640625q0.71875 0.625 0.859375 1.734375zm-4.78125 4.109375q0 0.609375 0.25 1.171875q0.265625 0.546875 0.71875 0.84375q0.46875 0.28125 0.984375 0.28125q0.734375 0 1.265625 -0.59375q0.546875 -0.609375 0.546875 -1.640625q0 -0.984375 -0.53125 -1.546875q-0.53125 -0.578125 -1.328125 -0.578125q-0.796875 0 -1.359375 0.578125q-0.546875 0.5625 -0.546875 1.484375z" fill-rule="nonzero"/><path fill="#000000" fill-opacity="0.0" d="m71.50131 221.25328l30.519684 0l0 15.5590515l-30.519684 0z" fill-rule="evenodd"/><path fill="#ffffff" d="m87.758545 231.31718l1.171875 -0.15625q0.203125 1.0 0.6875 1.4375q0.484375 0.4375 1.171875 0.4375q0.828125 0 1.390625 -0.578125q0.578125 -0.578125 0.578125 -1.421875q0 -0.796875 -0.53125 -1.3125q-0.515625 -0.53125 -1.328125 -0.53125q-0.34375 0 -0.828125 0.125l0.125 -1.03125q0.125 0.015625 0.1875 0.015625q0.75 0 1.34375 -0.390625q0.609375 -0.390625 0.609375 -1.203125q0 -0.640625 -0.4375 -1.0625q-0.4375 -0.421875 -1.125 -0.421875q-0.6875 0 -1.140625 0.4375q-0.453125 0.421875 -0.59375 1.28125l-1.171875 -0.21875q0.21875 -1.171875 0.984375 -1.8125q0.765625 -0.65625 1.890625 -0.65625q0.78125 0 1.4375 0.34375q0.65625 0.328125 1.0 0.90625q0.359375 0.578125 0.359375 1.234375q0 0.609375 -0.34375 1.125q-0.328125 0.5 -0.96875 0.796875q0.84375 0.203125 1.3125 0.828125q0.46875 0.609375 0.46875 1.53125q0 1.25 -0.921875 2.125q-0.90625 0.859375 -2.296875 0.859375q-1.25 0 -2.09375 -0.75q-0.828125 -0.75 -0.9375 -1.9375zm13.553101 1.390625l0 1.125l-6.296875 0q-0.015625 -0.421875 0.140625 -0.8125q0.234375 -0.640625 0.765625 -1.265625q0.53125 -0.625 1.53125 -1.453125q1.5625 -1.265625 2.109375 -2.015625q0.546875 -0.75 0.546875 -1.40625q0 -0.703125 -0.5 -1.171875q-0.5 -0.484375 -1.296875 -0.484375q-0.859375 0 -1.375 0.515625q-0.5 0.5 -0.5 1.390625l-1.203125 -0.109375q0.125 -1.359375 0.921875 -2.0625q0.8125 -0.703125 2.171875 -0.703125q1.375 0 2.171875 0.765625q0.8125 0.75 0.8125 1.875q0 0.578125 -0.234375 1.140625q-0.234375 0.546875 -0.78125 1.15625q-0.546875 0.609375 -1.8125 1.671875q-1.046875 0.890625 -1.359375 1.21875q-0.296875 0.3125 -0.484375 0.625l4.671875 0z" fill-rule="nonzero"/><path fill="#000000" fill-opacity="0.0" d="m71.50131 254.06955l30.519684 0l0 15.5590515l-30.519684 0z" fill-rule="evenodd"/><path fill="#ffffff" d="m93.821045 259.44595l-1.15625 0.09375q-0.15625 -0.6875 -0.4375 -1.0q-0.484375 -0.5 -1.171875 -0.5q-0.5625 0 -0.984375 0.3125q-0.5625 0.390625 -0.890625 1.171875q-0.3125 0.765625 -0.3125 2.203125q0.421875 -0.640625 1.03125 -0.953125q0.609375 -0.3125 1.28125 -0.3125q1.171875 0 1.984375 0.859375q0.828125 0.859375 0.828125 2.234375q0 0.890625 -0.390625 1.671875q-0.375 0.765625 -1.0625 1.171875q-0.671875 0.40625 -1.53125 0.40625q-1.46875 0 -2.390625 -1.0625q-0.921875 -1.078125 -0.921875 -3.5625q0 -2.765625 1.015625 -4.015625q0.90625 -1.09375 2.40625 -1.09375q1.125 0 1.84375 0.640625q0.71875 0.625 0.859375 1.734375zm-4.78125 4.109375q0 0.609375 0.25 1.171875q0.265625 0.546875 0.71875 0.84375q0.46875 0.28125 0.984375 0.28125q0.734375 0 1.265625 -0.59375q0.546875 -0.609375 0.546875 -1.640625q0 -0.984375 -0.53125 -1.546875q-0.53125 -0.578125 -1.328125 -0.578125q-0.796875 0 -1.359375 0.578125q-0.546875 0.5625 -0.546875 1.484375zm9.881226 3.09375l0 -2.28125l-4.140625 0l0 -1.078125l4.34375 -6.1875l0.96875 0l0 6.1875l1.28125 0l0 1.078125l-1.28125 0l0 2.28125l-1.171875 0zm0 -3.359375l0 -4.296875l-2.984375 4.296875l2.984375 0z" fill-rule="nonzero"/><path fill="#000000" fill-opacity="0.0" d="m117.580055 254.06955l15.559059 0l0 15.5590515l-15.559059 0z" fill-rule="evenodd"/><path stroke="#ffffff" stroke-width="1.0" stroke-linejoin="round" stroke-linecap="butt" d="m117.580055 254.06955l15.559059 0l0 15.5590515l-15.559059 0z" fill-rule="evenodd"/><path fill="#000000" fill-opacity="0.0" d="m133.13911 254.06955l15.5590515 0l0 15.5590515l-15.5590515 0z" fill-rule="evenodd"/><path stroke="#ffffff" stroke-width="1.0" stroke-linejoin="round" stroke-linecap="butt" d="m133.13911 254.06955l15.5590515 0l0 15.5590515l-15.5590515 0z" fill-rule="evenodd"/><path fill="#000000" fill-opacity="0.0" d="m148.69817 254.06955l15.5590515 0l0 15.5590515l-15.5590515 0z" fill-rule="evenodd"/><path stroke="#ffffff" stroke-width="1.0" stroke-linejoin="round" stroke-linecap="butt" d="m148.69817 254.06955l15.5590515 0l0 15.5590515l-15.5590515 0z" fill-rule="evenodd"/><path fill="#000000" fill-opacity="0.0" d="m164.25722 254.06955l15.5590515 0l0 15.5590515l-15.5590515 0z" fill-rule="evenodd"/><path stroke="#ffffff" stroke-width="1.0" stroke-linejoin="round" stroke-linecap="butt" d="m164.25722 254.06955l15.5590515 0l0 15.5590515l-15.5590515 0z" fill-rule="evenodd"/><path fill="#000000" fill-opacity="0.0" d="m179.81627 254.06955l15.559067 0l0 15.5590515l-15.559067 0z" fill-rule="evenodd"/><path stroke="#ffffff" stroke-width="1.0" stroke-linejoin="round" stroke-linecap="butt" d="m179.81627 254.06955l15.559067 0l0 15.5590515l-15.559067 0z" fill-rule="evenodd"/><path fill="#000000" fill-opacity="0.0" d="m195.37534 254.06955l15.5590515 0l0 15.5590515l-15.5590515 0z" fill-rule="evenodd"/><path stroke="#ffffff" stroke-width="1.0" stroke-linejoin="round" stroke-linecap="butt" d="m195.37534 254.06955l15.5590515 0l0 15.5590515l-15.5590515 0z" fill-rule="evenodd"/><path fill="#000000" fill-opacity="0.0" d="m210.93439 254.06955l15.5590515 0l0 15.5590515l-15.5590515 0z" fill-rule="evenodd"/><path stroke="#ffffff" stroke-width="1.0" stroke-linejoin="round" stroke-linecap="butt" d="m210.93439 254.06955l15.5590515 0l0 15.5590515l-15.5590515 0z" fill-rule="evenodd"/><path fill="#000000" fill-opacity="0.0" d="m226.49344 254.06955l15.5590515 0l0 15.5590515l-15.5590515 0z" fill-rule="evenodd"/><path stroke="#ffffff" stroke-width="1.0" stroke-linejoin="round" stroke-linecap="butt" d="m226.49344 254.06955l15.5590515 0l0 15.5590515l-15.5590515 0z" fill-rule="evenodd"/><path fill="#000000" fill-opacity="0.0" d="m242.05249 254.06955l15.5590515 0l0 15.5590515l-15.5590515 0z" fill-rule="evenodd"/><path stroke="#ffffff" stroke-width="1.0" stroke-linejoin="round" stroke-linecap="butt" d="m242.05249 254.06955l15.5590515 0l0 15.5590515l-15.5590515 0z" fill-rule="evenodd"/><path fill="#000000" fill-opacity="0.0" d="m257.61154 254.06955l15.5590515 0l0 15.5590515l-15.5590515 0z" fill-rule="evenodd"/><path stroke="#ffffff" stroke-width="1.0" stroke-linejoin="round" stroke-linecap="butt" d="m257.61154 254.06955l15.5590515 0l0 15.5590515l-15.5590515 0z" fill-rule="evenodd"/><path fill="#000000" fill-opacity="0.0" d="m273.1706 254.06955l15.5590515 0l0 15.5590515l-15.5590515 0z" fill-rule="evenodd"/><path stroke="#ffffff" stroke-width="1.0" stroke-linejoin="round" stroke-linecap="butt" d="m273.1706 254.06955l15.5590515 0l0 15.5590515l-15.5590515 0z" fill-rule="evenodd"/><path fill="#000000" fill-opacity="0.0" d="m288.72964 254.06955l15.559082 0l0 15.5590515l-15.559082 0z" fill-rule="evenodd"/><path stroke="#ffffff" stroke-width="1.0" stroke-linejoin="round" stroke-linecap="butt" d="m288.72964 254.06955l15.559082 0l0 15.5590515l-15.559082 0z" fill-rule="evenodd"/><path fill="#000000" fill-opacity="0.0" d="m304.28873 254.06955l15.5590515 0l0 15.5590515l-15.5590515 0z" fill-rule="evenodd"/><path stroke="#ffffff" stroke-width="1.0" stroke-linejoin="round" stroke-linecap="butt" d="m304.28873 254.06955l15.5590515 0l0 15.5590515l-15.5590515 0z" fill-rule="evenodd"/><path fill="#000000" fill-opacity="0.0" d="m319.84778 254.06955l15.5590515 0l0 15.5590515l-15.5590515 0z" fill-rule="evenodd"/><path stroke="#ffffff" stroke-width="1.0" stroke-linejoin="round" stroke-linecap="butt" d="m319.84778 254.06955l15.5590515 0l0 15.5590515l-15.5590515 0z" fill-rule="evenodd"/><path fill="#000000" fill-opacity="0.0" d="m335.40683 254.06955l15.5590515 0l0 15.5590515l-15.5590515 0z" fill-rule="evenodd"/><path stroke="#ffffff" stroke-width="1.0" stroke-linejoin="round" stroke-linecap="butt" d="m335.40683 254.06955l15.5590515 0l0 15.5590515l-15.5590515 0z" fill-rule="evenodd"/><path fill="#000000" fill-opacity="0.0" d="m350.96588 254.06955l15.5590515 0l0 15.5590515l-15.5590515 0z" fill-rule="evenodd"/><path stroke="#ffffff" stroke-width="1.0" stroke-linejoin="round" stroke-linecap="butt" d="m350.96588 254.06955l15.5590515 0l0 15.5590515l-15.5590515 0z" fill-rule="evenodd"/><path fill="#000000" fill-opacity="0.0" d="m366.52493 254.06955l15.5590515 0l0 15.5590515l-15.5590515 0z" fill-rule="evenodd"/><path stroke="#ffffff" stroke-width="1.0" stroke-linejoin="round" stroke-linecap="butt" d="m366.52493 254.06955l15.5590515 0l0 15.5590515l-15.5590515 0z" fill-rule="evenodd"/><path fill="#000000" fill-opacity="0.0" d="m382.08398 254.06955l15.5590515 0l0 15.5590515l-15.5590515 0z" fill-rule="evenodd"/><path stroke="#ffffff" stroke-width="1.0" stroke-linejoin="round" stroke-linecap="butt" d="m382.08398 254.06955l15.5590515 0l0 15.5590515l-15.5590515 0z" fill-rule="evenodd"/><path fill="#000000" fill-opacity="0.0" d="m397.64304 254.06955l15.5590515 0l0 15.5590515l-15.5590515 0z" fill-rule="evenodd"/><path stroke="#ffffff" stroke-width="1.0" stroke-linejoin="round" stroke-linecap="butt" d="m397.64304 254.06955l15.5590515 0l0 15.5590515l-15.5590515 0z" fill-rule="evenodd"/><path fill="#000000" fill-opacity="0.0" d="m413.2021 254.06955l15.559082 0l0 15.5590515l-15.559082 0z" fill-rule="evenodd"/><path stroke="#ffffff" stroke-width="1.0" stroke-linejoin="round" stroke-linecap="butt" d="m413.2021 254.06955l15.559082 0l0 15.5590515l-15.559082 0z" fill-rule="evenodd"/><path fill="#000000" fill-opacity="0.0" d="m428.76117 254.06955l15.5590515 0l0 15.5590515l-15.5590515 0z" fill-rule="evenodd"/><path stroke="#ffffff" stroke-width="1.0" stroke-linejoin="round" stroke-linecap="butt" d="m428.76117 254.06955l15.5590515 0l0 15.5590515l-15.5590515 0z" fill-rule="evenodd"/><path fill="#000000" fill-opacity="0.0" d="m444.32022 254.06955l15.5590515 0l0 15.5590515l-15.5590515 0z" fill-rule="evenodd"/><path stroke="#ffffff" stroke-width="1.0" stroke-linejoin="round" stroke-linecap="butt" d="m444.32022 254.06955l15.5590515 0l0 15.5590515l-15.5590515 0z" fill-rule="evenodd"/><path fill="#000000" fill-opacity="0.0" d="m459.87927 254.06955l15.5590515 0l0 15.5590515l-15.5590515 0z" fill-rule="evenodd"/><path stroke="#ffffff" stroke-width="1.0" stroke-linejoin="round" stroke-linecap="butt" d="m459.87927 254.06955l15.5590515 0l0 15.5590515l-15.5590515 0z" fill-rule="evenodd"/><path fill="#000000" fill-opacity="0.0" d="m475.43832 254.06955l15.5590515 0l0 15.5590515l-15.5590515 0z" fill-rule="evenodd"/><path stroke="#ffffff" stroke-width="1.0" stroke-linejoin="round" stroke-linecap="butt" d="m475.43832 254.06955l15.5590515 0l0 15.5590515l-15.5590515 0z" fill-rule="evenodd"/><path fill="#000000" fill-opacity="0.0" d="m490.99738 254.06955l15.5590515 0l0 15.5590515l-15.5590515 0z" fill-rule="evenodd"/><path stroke="#ffffff" stroke-width="1.0" stroke-linejoin="round" stroke-linecap="butt" d="m490.99738 254.06955l15.5590515 0l0 15.5590515l-15.5590515 0z" fill-rule="evenodd"/><path fill="#000000" fill-opacity="0.0" d="m506.55643 254.06955l15.5590515 0l0 15.5590515l-15.5590515 0z" fill-rule="evenodd"/><path stroke="#ffffff" stroke-width="1.0" stroke-linejoin="round" stroke-linecap="butt" d="m506.55643 254.06955l15.5590515 0l0 15.5590515l-15.5590515 0z" fill-rule="evenodd"/><path fill="#000000" fill-opacity="0.0" d="m522.1155 254.06955l15.559082 0l0 15.5590515l-15.559082 0z" fill-rule="evenodd"/><path stroke="#ffffff" stroke-width="1.0" stroke-linejoin="round" stroke-linecap="butt" d="m522.1155 254.06955l15.559082 0l0 15.5590515l-15.559082 0z" fill-rule="evenodd"/><path fill="#000000" fill-opacity="0.0" d="m537.67456 254.06955l15.559021 0l0 15.5590515l-15.559021 0z" fill-rule="evenodd"/><path stroke="#ffffff" stroke-width="1.0" stroke-linejoin="round" stroke-linecap="butt" d="m537.67456 254.06955l15.559021 0l0 15.5590515l-15.559021 0z" fill-rule="evenodd"/></g></svg>